<svg width="924" height="746" viewBox="0 0 924 746" fill="none" xmlns="http://www.w3.org/2000/svg">
    <circle cx="462" cy="462" r="100" stroke="white" stroke-opacity="0.24" stroke-width="4"/>
    <circle cx="462" cy="462" r="220" stroke="white" stroke-opacity="0.12" stroke-width="4"/>
    <circle cx="462" cy="462" r="340" stroke="white" stroke-opacity="0.06" stroke-width="4"/>
    <circle cx="462" cy="462" r="460" stroke="white" stroke-opacity="0.03" stroke-width="4"/>
    <rect x="442" y="662" width="40" height="40" fill="#7075E9"/>
    <path d="M467.015 672.111C466.551 672.575 465.756 672.716 465.293 672.252L463.279 670.239C462.77 669.73 461.945 669.73 461.435 670.239L459.422 672.252C458.959 672.716 458.164 672.575 457.7 672.111C456.157 670.568 453.655 670.568 452.112 672.111C450.568 673.655 450.568 676.157 452.112 677.7C452.575 678.163 452.716 678.959 452.253 679.422L450.239 681.435C449.73 681.944 449.73 682.77 450.239 683.279L452.253 685.292C452.716 685.756 453.511 685.615 453.974 685.151C455.518 683.608 458.02 683.608 459.563 685.151C461.106 686.695 461.106 689.197 459.563 690.74C459.1 691.204 458.959 691.999 459.422 692.462L461.435 694.475C461.945 694.984 462.77 694.984 463.279 694.475L465.293 692.462C465.756 691.999 466.551 692.14 467.015 692.603C468.558 694.146 471.06 694.146 472.603 692.603C474.147 691.06 474.147 688.558 472.603 687.014C472.14 686.551 471.999 685.756 472.462 685.292L474.475 683.279C474.985 682.77 474.985 681.944 474.475 681.435L472.462 679.422C471.999 678.959 472.14 678.163 472.603 677.7C474.147 676.157 474.147 673.655 472.603 672.111C471.06 670.568 468.558 670.568 467.015 672.111Z" fill="white"/>
    <rect x="251" y="331" width="40" height="40" fill="#209D7F"/>
    <path fill-rule="evenodd" clip-rule="evenodd" d="M283.357 354.554C283.681 353.426 283.854 352.233 283.854 350.999C283.854 343.898 278.099 338.143 270.998 338.143C266.144 338.143 261.918 340.834 259.731 344.804L263.768 348.212C264.886 345.311 267.704 343.251 270.998 343.251C273.886 343.251 276.407 344.832 277.739 347.174L275.304 347.792L278.881 350.768L283.357 354.554ZM282.038 357.592C279.792 361.345 275.687 363.857 270.998 363.857C263.898 363.857 258.143 358.102 258.143 351.001C258.143 349.935 258.272 348.9 258.518 347.909L262.327 351.126L266.123 354.285L264.226 354.766C265.549 357.142 268.087 358.749 270.998 358.749C274.127 358.749 276.823 356.894 278.047 354.223L282.038 357.592Z" fill="#173937"/>
    <path fill-rule="evenodd" clip-rule="evenodd" d="M283.358 354.554C283.682 353.426 283.855 352.233 283.855 350.999C283.855 343.898 278.1 338.143 270.999 338.143C266.145 338.143 261.919 340.834 259.732 344.804L263.769 348.212C264.887 345.311 267.705 343.251 270.999 343.251C273.887 343.251 276.408 344.832 277.74 347.174L275.305 347.792L278.882 350.768L283.358 354.554Z" fill="white"/>
    <rect x="633" y="331" width="40" height="40" fill="white"/>
    <rect x="633" y="331" width="40" height="40" fill="#171D29"/>
    <path d="M642.285 340.286L663.714 340.286L652.999 351L642.285 340.286Z" fill="#E33B48"/>
    <path d="M663.713 361.714L642.284 361.714L652.999 351L663.713 361.714Z" fill="#4A74E6"/>
    <circle cx="462" cy="362" r="6" fill="white"/>
    <rect x="298" y="390" width="328" height="152" rx="16" fill="#8082C5"/>
    <rect x="282" y="382" width="360" height="152" rx="16" fill="white"/>
    <path d="M316.711 425.605C316.711 425.254 316.656 424.941 316.547 424.668C316.445 424.395 316.262 424.145 315.996 423.918C315.73 423.691 315.355 423.473 314.871 423.262C314.395 423.043 313.785 422.82 313.043 422.594C312.23 422.344 311.48 422.066 310.793 421.762C310.113 421.449 309.52 421.09 309.012 420.684C308.504 420.27 308.109 419.797 307.828 419.266C307.547 418.727 307.406 418.105 307.406 417.402C307.406 416.707 307.551 416.074 307.84 415.504C308.137 414.934 308.555 414.441 309.094 414.027C309.641 413.605 310.285 413.281 311.027 413.055C311.77 412.82 312.59 412.703 313.488 412.703C314.754 412.703 315.844 412.938 316.758 413.406C317.68 413.875 318.387 414.504 318.879 415.293C319.379 416.082 319.629 416.953 319.629 417.906H316.711C316.711 417.344 316.59 416.848 316.348 416.418C316.113 415.98 315.754 415.637 315.27 415.387C314.793 415.137 314.188 415.012 313.453 415.012C312.758 415.012 312.18 415.117 311.719 415.328C311.258 415.539 310.914 415.824 310.688 416.184C310.461 416.543 310.348 416.949 310.348 417.402C310.348 417.723 310.422 418.016 310.57 418.281C310.719 418.539 310.945 418.781 311.25 419.008C311.555 419.227 311.938 419.434 312.398 419.629C312.859 419.824 313.402 420.012 314.027 420.191C314.973 420.473 315.797 420.785 316.5 421.129C317.203 421.465 317.789 421.848 318.258 422.277C318.727 422.707 319.078 423.195 319.312 423.742C319.547 424.281 319.664 424.895 319.664 425.582C319.664 426.301 319.52 426.949 319.23 427.527C318.941 428.098 318.527 428.586 317.988 428.992C317.457 429.391 316.816 429.699 316.066 429.918C315.324 430.129 314.496 430.234 313.582 430.234C312.762 430.234 311.953 430.125 311.156 429.906C310.367 429.688 309.648 429.355 309 428.91C308.352 428.457 307.836 427.895 307.453 427.223C307.07 426.543 306.879 425.75 306.879 424.844H309.82C309.82 425.398 309.914 425.871 310.102 426.262C310.297 426.652 310.566 426.973 310.91 427.223C311.254 427.465 311.652 427.645 312.105 427.762C312.566 427.879 313.059 427.938 313.582 427.938C314.27 427.938 314.844 427.84 315.305 427.645C315.773 427.449 316.125 427.176 316.359 426.824C316.594 426.473 316.711 426.066 316.711 425.605ZM327.574 430.234C326.637 430.234 325.789 430.082 325.031 429.777C324.281 429.465 323.641 429.031 323.109 428.477C322.586 427.922 322.184 427.27 321.902 426.52C321.621 425.77 321.48 424.961 321.48 424.094V423.625C321.48 422.633 321.625 421.734 321.914 420.93C322.203 420.125 322.605 419.438 323.121 418.867C323.637 418.289 324.246 417.848 324.949 417.543C325.652 417.238 326.414 417.086 327.234 417.086C328.141 417.086 328.934 417.238 329.613 417.543C330.293 417.848 330.855 418.277 331.301 418.832C331.754 419.379 332.09 420.031 332.309 420.789C332.535 421.547 332.648 422.383 332.648 423.297V424.504H322.852V422.477H329.859V422.254C329.844 421.746 329.742 421.27 329.555 420.824C329.375 420.379 329.098 420.02 328.723 419.746C328.348 419.473 327.848 419.336 327.223 419.336C326.754 419.336 326.336 419.438 325.969 419.641C325.609 419.836 325.309 420.121 325.066 420.496C324.824 420.871 324.637 421.324 324.504 421.855C324.379 422.379 324.316 422.969 324.316 423.625V424.094C324.316 424.648 324.391 425.164 324.539 425.641C324.695 426.109 324.922 426.52 325.219 426.871C325.516 427.223 325.875 427.5 326.297 427.703C326.719 427.898 327.199 427.996 327.738 427.996C328.418 427.996 329.023 427.859 329.555 427.586C330.086 427.312 330.547 426.926 330.938 426.426L332.426 427.867C332.152 428.266 331.797 428.648 331.359 429.016C330.922 429.375 330.387 429.668 329.754 429.895C329.129 430.121 328.402 430.234 327.574 430.234ZM337.875 412V430H335.039V412H337.875ZM343.992 412V430H341.156V412H343.992ZM364.02 420.039V422.828C364.02 424.164 363.887 425.305 363.621 426.25C363.363 427.188 362.988 427.949 362.496 428.535C362.004 429.121 361.414 429.551 360.727 429.824C360.047 430.098 359.285 430.234 358.441 430.234C357.77 430.234 357.145 430.148 356.566 429.977C355.996 429.805 355.48 429.535 355.02 429.168C354.559 428.801 354.164 428.328 353.836 427.75C353.516 427.164 353.266 426.465 353.086 425.652C352.914 424.84 352.828 423.898 352.828 422.828V420.039C352.828 418.695 352.961 417.562 353.227 416.641C353.492 415.711 353.871 414.957 354.363 414.379C354.855 413.793 355.441 413.367 356.121 413.102C356.809 412.836 357.574 412.703 358.418 412.703C359.098 412.703 359.723 412.789 360.293 412.961C360.871 413.125 361.387 413.387 361.84 413.746C362.301 414.105 362.691 414.574 363.012 415.152C363.34 415.723 363.59 416.414 363.762 417.227C363.934 418.031 364.02 418.969 364.02 420.039ZM361.195 423.227V419.617C361.195 418.938 361.156 418.34 361.078 417.824C361 417.301 360.883 416.859 360.727 416.5C360.578 416.133 360.391 415.836 360.164 415.609C359.938 415.375 359.68 415.207 359.391 415.105C359.102 414.996 358.777 414.941 358.418 414.941C357.98 414.941 357.59 415.027 357.246 415.199C356.902 415.363 356.613 415.629 356.379 415.996C356.145 416.363 355.965 416.848 355.84 417.449C355.723 418.043 355.664 418.766 355.664 419.617V423.227C355.664 423.914 355.703 424.52 355.781 425.043C355.859 425.566 355.977 426.016 356.133 426.391C356.289 426.758 356.477 427.062 356.695 427.305C356.922 427.539 357.18 427.711 357.469 427.82C357.766 427.93 358.09 427.984 358.441 427.984C358.887 427.984 359.281 427.898 359.625 427.727C359.969 427.555 360.258 427.281 360.492 426.906C360.727 426.523 360.902 426.027 361.02 425.418C361.137 424.809 361.195 424.078 361.195 423.227ZM366.82 428.594C366.82 428.156 366.969 427.789 367.266 427.492C367.562 427.188 367.965 427.035 368.473 427.035C368.988 427.035 369.391 427.188 369.68 427.492C369.977 427.789 370.125 428.156 370.125 428.594C370.125 429.031 369.977 429.398 369.68 429.695C369.391 429.992 368.988 430.141 368.473 430.141C367.965 430.141 367.562 429.992 367.266 429.695C366.969 429.398 366.82 429.031 366.82 428.594ZM384.34 420.039V422.828C384.34 424.164 384.207 425.305 383.941 426.25C383.684 427.188 383.309 427.949 382.816 428.535C382.324 429.121 381.734 429.551 381.047 429.824C380.367 430.098 379.605 430.234 378.762 430.234C378.09 430.234 377.465 430.148 376.887 429.977C376.316 429.805 375.801 429.535 375.34 429.168C374.879 428.801 374.484 428.328 374.156 427.75C373.836 427.164 373.586 426.465 373.406 425.652C373.234 424.84 373.148 423.898 373.148 422.828V420.039C373.148 418.695 373.281 417.562 373.547 416.641C373.812 415.711 374.191 414.957 374.684 414.379C375.176 413.793 375.762 413.367 376.441 413.102C377.129 412.836 377.895 412.703 378.738 412.703C379.418 412.703 380.043 412.789 380.613 412.961C381.191 413.125 381.707 413.387 382.16 413.746C382.621 414.105 383.012 414.574 383.332 415.152C383.66 415.723 383.91 416.414 384.082 417.227C384.254 418.031 384.34 418.969 384.34 420.039ZM381.516 423.227V419.617C381.516 418.938 381.477 418.34 381.398 417.824C381.32 417.301 381.203 416.859 381.047 416.5C380.898 416.133 380.711 415.836 380.484 415.609C380.258 415.375 380 415.207 379.711 415.105C379.422 414.996 379.098 414.941 378.738 414.941C378.301 414.941 377.91 415.027 377.566 415.199C377.223 415.363 376.934 415.629 376.699 415.996C376.465 416.363 376.285 416.848 376.16 417.449C376.043 418.043 375.984 418.766 375.984 419.617V423.227C375.984 423.914 376.023 424.52 376.102 425.043C376.18 425.566 376.297 426.016 376.453 426.391C376.609 426.758 376.797 427.062 377.016 427.305C377.242 427.539 377.5 427.711 377.789 427.82C378.086 427.93 378.41 427.984 378.762 427.984C379.207 427.984 379.602 427.898 379.945 427.727C380.289 427.555 380.578 427.281 380.812 426.906C381.047 426.523 381.223 426.027 381.34 425.418C381.457 424.809 381.516 424.078 381.516 423.227ZM394.57 412.879V430H391.746V416.23L387.562 417.648V415.316L394.23 412.879H394.57ZM413.32 422.289H408.973L408.949 420.145H412.746C413.387 420.145 413.93 420.051 414.375 419.863C414.828 419.668 415.172 419.391 415.406 419.031C415.641 418.664 415.758 418.223 415.758 417.707C415.758 417.137 415.648 416.672 415.43 416.312C415.211 415.953 414.875 415.691 414.422 415.527C413.977 415.363 413.406 415.281 412.711 415.281H409.863V430H406.922V412.938H412.711C413.648 412.938 414.484 413.027 415.219 413.207C415.961 413.387 416.59 413.668 417.105 414.051C417.629 414.426 418.023 414.902 418.289 415.48C418.562 416.059 418.699 416.746 418.699 417.543C418.699 418.246 418.531 418.891 418.195 419.477C417.859 420.055 417.363 420.527 416.707 420.895C416.051 421.262 415.234 421.48 414.258 421.551L413.32 422.289ZM413.191 430H408.047L409.371 427.668H413.191C413.855 427.668 414.41 427.559 414.855 427.34C415.301 427.113 415.633 426.805 415.852 426.414C416.078 426.016 416.191 425.551 416.191 425.02C416.191 424.465 416.094 423.984 415.898 423.578C415.703 423.164 415.395 422.848 414.973 422.629C414.551 422.402 414 422.289 413.32 422.289H410.016L410.039 420.145H414.34L415.008 420.953C415.945 420.984 416.715 421.191 417.316 421.574C417.926 421.957 418.379 422.453 418.676 423.062C418.973 423.672 419.121 424.328 419.121 425.031C419.121 426.117 418.883 427.027 418.406 427.762C417.938 428.496 417.262 429.055 416.379 429.438C415.496 429.812 414.434 430 413.191 430ZM428.777 412.938V430H425.859V412.938H428.777ZM434.133 412.938V415.281H420.551V412.938H434.133ZM446.133 424.445H449.062C448.969 425.562 448.656 426.559 448.125 427.434C447.594 428.301 446.848 428.984 445.887 429.484C444.926 429.984 443.758 430.234 442.383 430.234C441.328 430.234 440.379 430.047 439.535 429.672C438.691 429.289 437.969 428.75 437.367 428.055C436.766 427.352 436.305 426.504 435.984 425.512C435.672 424.52 435.516 423.41 435.516 422.184V420.766C435.516 419.539 435.676 418.43 435.996 417.438C436.324 416.445 436.793 415.598 437.402 414.895C438.012 414.184 438.742 413.641 439.594 413.266C440.453 412.891 441.418 412.703 442.488 412.703C443.848 412.703 444.996 412.953 445.934 413.453C446.871 413.953 447.598 414.645 448.113 415.527C448.637 416.41 448.957 417.422 449.074 418.562H446.145C446.066 417.828 445.895 417.199 445.629 416.676C445.371 416.152 444.988 415.754 444.48 415.48C443.973 415.199 443.309 415.059 442.488 415.059C441.816 415.059 441.23 415.184 440.73 415.434C440.23 415.684 439.812 416.051 439.477 416.535C439.141 417.02 438.887 417.617 438.715 418.328C438.551 419.031 438.469 419.836 438.469 420.742V422.184C438.469 423.043 438.543 423.824 438.691 424.527C438.848 425.223 439.082 425.82 439.395 426.32C439.715 426.82 440.121 427.207 440.613 427.48C441.105 427.754 441.695 427.891 442.383 427.891C443.219 427.891 443.895 427.758 444.41 427.492C444.934 427.227 445.328 426.84 445.594 426.332C445.867 425.816 446.047 425.188 446.133 424.445ZM311.273 462H308.449V448.102C308.449 447.156 308.625 446.363 308.977 445.723C309.336 445.074 309.848 444.586 310.512 444.258C311.176 443.922 311.961 443.754 312.867 443.754C313.148 443.754 313.426 443.773 313.699 443.812C313.973 443.844 314.238 443.895 314.496 443.965L314.426 446.145C314.27 446.105 314.098 446.078 313.91 446.062C313.73 446.047 313.535 446.039 313.324 446.039C312.895 446.039 312.523 446.121 312.211 446.285C311.906 446.441 311.672 446.672 311.508 446.977C311.352 447.281 311.273 447.656 311.273 448.102V462ZM313.887 449.32V451.383H306.504V449.32H313.887ZM315.398 455.801V455.531C315.398 454.617 315.531 453.77 315.797 452.988C316.062 452.199 316.445 451.516 316.945 450.938C317.453 450.352 318.07 449.898 318.797 449.578C319.531 449.25 320.359 449.086 321.281 449.086C322.211 449.086 323.039 449.25 323.766 449.578C324.5 449.898 325.121 450.352 325.629 450.938C326.137 451.516 326.523 452.199 326.789 452.988C327.055 453.77 327.188 454.617 327.188 455.531V455.801C327.188 456.715 327.055 457.562 326.789 458.344C326.523 459.125 326.137 459.809 325.629 460.395C325.121 460.973 324.504 461.426 323.777 461.754C323.051 462.074 322.227 462.234 321.305 462.234C320.375 462.234 319.543 462.074 318.809 461.754C318.082 461.426 317.465 460.973 316.957 460.395C316.449 459.809 316.062 459.125 315.797 458.344C315.531 457.562 315.398 456.715 315.398 455.801ZM318.223 455.531V455.801C318.223 456.371 318.281 456.91 318.398 457.418C318.516 457.926 318.699 458.371 318.949 458.754C319.199 459.137 319.52 459.438 319.91 459.656C320.301 459.875 320.766 459.984 321.305 459.984C321.828 459.984 322.281 459.875 322.664 459.656C323.055 459.438 323.375 459.137 323.625 458.754C323.875 458.371 324.059 457.926 324.176 457.418C324.301 456.91 324.363 456.371 324.363 455.801V455.531C324.363 454.969 324.301 454.438 324.176 453.938C324.059 453.43 323.871 452.98 323.613 452.59C323.363 452.199 323.043 451.895 322.652 451.676C322.27 451.449 321.812 451.336 321.281 451.336C320.75 451.336 320.289 451.449 319.898 451.676C319.516 451.895 319.199 452.199 318.949 452.59C318.699 452.98 318.516 453.43 318.398 453.938C318.281 454.438 318.223 454.969 318.223 455.531ZM332.391 451.734V462H329.566V449.32H332.262L332.391 451.734ZM336.27 449.238L336.246 451.863C336.074 451.832 335.887 451.809 335.684 451.793C335.488 451.777 335.293 451.77 335.098 451.77C334.613 451.77 334.188 451.84 333.82 451.98C333.453 452.113 333.145 452.309 332.895 452.566C332.652 452.816 332.465 453.121 332.332 453.48C332.199 453.84 332.121 454.242 332.098 454.688L331.453 454.734C331.453 453.938 331.531 453.199 331.688 452.52C331.844 451.84 332.078 451.242 332.391 450.727C332.711 450.211 333.109 449.809 333.586 449.52C334.07 449.23 334.629 449.086 335.262 449.086C335.434 449.086 335.617 449.102 335.812 449.133C336.016 449.164 336.168 449.199 336.27 449.238ZM350.777 455.637H346.336V453.305H350.777C351.551 453.305 352.176 453.18 352.652 452.93C353.129 452.68 353.477 452.336 353.695 451.898C353.922 451.453 354.035 450.945 354.035 450.375C354.035 449.836 353.922 449.332 353.695 448.863C353.477 448.387 353.129 448.004 352.652 447.715C352.176 447.426 351.551 447.281 350.777 447.281H347.238V462H344.297V444.938H350.777C352.098 444.938 353.219 445.172 354.141 445.641C355.07 446.102 355.777 446.742 356.262 447.562C356.746 448.375 356.988 449.305 356.988 450.352C356.988 451.453 356.746 452.398 356.262 453.188C355.777 453.977 355.07 454.582 354.141 455.004C353.219 455.426 352.098 455.637 350.777 455.637ZM369.199 444.938H372.129V456.34C372.129 457.637 371.848 458.723 371.285 459.598C370.723 460.473 369.957 461.133 368.988 461.578C368.027 462.016 366.953 462.234 365.766 462.234C364.539 462.234 363.445 462.016 362.484 461.578C361.523 461.133 360.766 460.473 360.211 459.598C359.664 458.723 359.391 457.637 359.391 456.34V444.938H362.32V456.34C362.32 457.16 362.461 457.836 362.742 458.367C363.023 458.891 363.422 459.277 363.938 459.527C364.453 459.777 365.062 459.902 365.766 459.902C366.469 459.902 367.074 459.777 367.582 459.527C368.098 459.277 368.496 458.891 368.777 458.367C369.059 457.836 369.199 457.16 369.199 456.34V444.938ZM387.258 459.668V462H375.41V459.668H387.258ZM386.988 446.754L376.5 462H374.531V460.137L385.055 444.938H386.988V446.754ZM385.898 444.938V447.281H374.602V444.938H385.898ZM401.742 459.668V462H389.895V459.668H401.742ZM401.473 446.754L390.984 462H389.016V460.137L399.539 444.938H401.473V446.754ZM400.383 444.938V447.281H389.086V444.938H400.383ZM414.984 459.668V462H406.418V459.668H414.984ZM407.238 444.938V462H404.297V444.938H407.238ZM428.426 459.668V462H419.367V459.668H428.426ZM420.199 444.938V462H417.258V444.938H420.199ZM427.242 452.062V454.359H419.367V452.062H427.242ZM428.367 444.938V447.281H419.367V444.938H428.367Z" fill="#363870"/>
    <rect x="546" y="406" width="40" height="40" fill="#7075E9"/>
    <path d="M571.015 416.111C570.551 416.575 569.756 416.716 569.293 416.252L567.279 414.239C566.77 413.73 565.945 413.73 565.435 414.239L563.422 416.252C562.959 416.716 562.164 416.575 561.7 416.111C560.157 414.568 557.655 414.568 556.112 416.111C554.568 417.655 554.568 420.157 556.112 421.7C556.575 422.163 556.716 422.959 556.253 423.422L554.239 425.435C553.73 425.944 553.73 426.77 554.239 427.279L556.253 429.292C556.716 429.756 557.511 429.615 557.974 429.151C559.518 427.608 562.02 427.608 563.563 429.151C565.106 430.695 565.106 433.197 563.563 434.74C563.1 435.204 562.959 435.999 563.422 436.462L565.435 438.475C565.945 438.984 566.77 438.984 567.279 438.475L569.293 436.462C569.756 435.999 570.551 436.14 571.015 436.603C572.558 438.146 575.06 438.146 576.603 436.603C578.147 435.06 578.147 432.558 576.603 431.014C576.14 430.551 575.999 429.756 576.462 429.292L578.475 427.279C578.985 426.77 578.985 425.944 578.475 425.435L576.462 423.422C575.999 422.959 576.14 422.163 576.603 421.7C578.147 420.157 578.147 417.655 576.603 416.111C575.06 414.568 572.558 414.568 571.015 416.111Z" fill="white"/>
    <path d="M566 442C557.163 442 550 434.837 550 426H542C542 439.255 552.745 450 566 450V442ZM582 426C582 434.837 574.837 442 566 442V450C579.255 450 590 439.255 590 426H582ZM566 410C574.837 410 582 417.163 582 426H590C590 412.745 579.255 402 566 402V410ZM566 402C552.745 402 542 412.745 542 426H550C550 417.163 557.163 410 566 410V402Z" fill="white"/>
    <rect x="578" y="406" width="40" height="40" fill="url(#paint0_linear_0_1)"/>
    <path fill-rule="evenodd" clip-rule="evenodd" d="M604.865 423.654C605.18 421.549 603.576 420.417 601.384 419.661L602.095 416.809L600.36 416.377L599.667 419.154C599.211 419.039 598.743 418.933 598.275 418.826L598.974 416.031L597.238 415.598L596.527 418.45C596.149 418.363 595.777 418.279 595.418 418.189L595.42 418.18L593.025 417.582L592.563 419.436C592.563 419.436 593.852 419.732 593.825 419.75C594.528 419.925 594.654 420.39 594.633 420.76L593.824 424.01C593.872 424.022 593.934 424.04 594.004 424.067L593.821 424.022L592.686 428.574C592.599 428.787 592.381 429.107 591.889 428.986C591.907 429.011 590.627 428.671 590.627 428.671L589.766 430.658L592.026 431.222C592.446 431.327 592.857 431.438 593.262 431.541L592.544 434.426L594.279 434.858L594.99 432.005C595.464 432.133 595.924 432.251 596.374 432.364L595.665 435.204L597.401 435.636L598.119 432.757C601.08 433.318 603.306 433.092 604.243 430.414C604.998 428.258 604.206 427.014 602.648 426.203C603.783 425.942 604.637 425.196 604.865 423.654ZM600.897 429.217C600.362 431.373 596.731 430.207 595.553 429.915L596.508 426.093C597.685 426.387 601.459 426.969 600.897 429.217ZM601.434 423.623C600.945 425.585 597.924 424.587 596.945 424.343L597.808 420.878C598.788 421.122 601.945 421.577 601.434 423.623Z" fill="white"/>
    <path d="M598 442C589.163 442 582 434.837 582 426H574C574 439.255 584.745 450 598 450V442ZM614 426C614 434.837 606.837 442 598 442V450C611.255 450 622 439.255 622 426H614ZM598 410C606.837 410 614 417.163 614 426H622C622 412.745 611.255 402 598 402V410ZM598 402C584.745 402 574 412.745 574 426H582C582 417.163 589.163 410 598 410V402Z" fill="white"/>
    <rect x="306" y="486" width="150" height="8" rx="4" fill="#7075E9"/>
    <path d="M309.447 504.212H307.548V503.445H309.447C309.815 503.445 310.113 503.387 310.341 503.27C310.569 503.152 310.735 502.99 310.839 502.781C310.946 502.573 311 502.335 311 502.068C311 501.824 310.946 501.595 310.839 501.38C310.735 501.165 310.569 500.993 310.341 500.862C310.113 500.729 309.815 500.662 309.447 500.662H307.768V507H306.825V499.891H309.447C309.984 499.891 310.438 499.983 310.81 500.169C311.181 500.354 311.462 500.612 311.654 500.94C311.846 501.266 311.942 501.639 311.942 502.059C311.942 502.514 311.846 502.903 311.654 503.226C311.462 503.548 311.181 503.794 310.81 503.963C310.438 504.129 309.984 504.212 309.447 504.212ZM316.229 505.779V501.717H317.138V507H316.273L316.229 505.779ZM316.4 504.666L316.776 504.656C316.776 505.008 316.739 505.333 316.664 505.633C316.592 505.929 316.475 506.186 316.312 506.404C316.15 506.622 315.937 506.793 315.673 506.917C315.409 507.037 315.089 507.098 314.711 507.098C314.454 507.098 314.218 507.06 314.003 506.985C313.791 506.91 313.609 506.795 313.456 506.639C313.303 506.482 313.184 506.279 313.1 506.028C313.018 505.778 312.978 505.477 312.978 505.125V501.717H313.881V505.135C313.881 505.372 313.907 505.569 313.959 505.726C314.014 505.879 314.088 506.001 314.179 506.092C314.273 506.18 314.377 506.242 314.491 506.277C314.608 506.313 314.729 506.331 314.853 506.331C315.237 506.331 315.541 506.258 315.766 506.111C315.99 505.962 316.151 505.761 316.249 505.511C316.35 505.257 316.4 504.975 316.4 504.666ZM322.45 506.258V507H318.607V506.258H322.45ZM322.309 502.356L318.812 507H318.261V506.336L321.732 501.717H322.309V502.356ZM321.908 501.717V502.464H318.3V501.717H321.908ZM327.411 506.258V507H323.568V506.258H327.411ZM327.27 502.356L323.773 507H323.222V506.336L326.693 501.717H327.27V502.356ZM326.869 501.717V502.464H323.261V501.717H326.869ZM329.418 499.5V507H328.51V499.5H329.418ZM333.061 507.098C332.693 507.098 332.359 507.036 332.06 506.912C331.763 506.785 331.508 506.608 331.293 506.38C331.081 506.152 330.919 505.882 330.805 505.569C330.691 505.257 330.634 504.915 330.634 504.544V504.339C330.634 503.909 330.697 503.527 330.824 503.191C330.951 502.853 331.124 502.566 331.342 502.332C331.56 502.098 331.807 501.92 332.084 501.8C332.361 501.679 332.647 501.619 332.943 501.619C333.321 501.619 333.646 501.684 333.92 501.814C334.197 501.945 334.423 502.127 334.599 502.361C334.774 502.592 334.905 502.866 334.989 503.182C335.074 503.494 335.116 503.836 335.116 504.207V504.612H331.171V503.875H334.213V503.807C334.2 503.572 334.151 503.344 334.066 503.123C333.985 502.902 333.855 502.719 333.676 502.576C333.497 502.433 333.253 502.361 332.943 502.361C332.738 502.361 332.549 502.405 332.377 502.493C332.204 502.578 332.056 502.705 331.933 502.874C331.809 503.043 331.713 503.25 331.645 503.494C331.576 503.738 331.542 504.02 331.542 504.339V504.544C331.542 504.795 331.576 505.031 331.645 505.252C331.716 505.47 331.819 505.662 331.952 505.828C332.089 505.994 332.253 506.124 332.445 506.219C332.641 506.313 332.862 506.36 333.109 506.36C333.428 506.36 333.699 506.295 333.92 506.165C334.141 506.035 334.335 505.861 334.501 505.643L335.048 506.077C334.934 506.25 334.789 506.414 334.613 506.57C334.438 506.727 334.221 506.854 333.964 506.951C333.71 507.049 333.409 507.098 333.061 507.098ZM339.696 503.616L338.974 503.431L339.33 499.891H342.978V500.726H340.097L339.882 502.659C340.012 502.584 340.176 502.514 340.375 502.449C340.577 502.384 340.808 502.352 341.068 502.352C341.397 502.352 341.692 502.409 341.952 502.522C342.213 502.633 342.434 502.793 342.616 503.001C342.802 503.209 342.943 503.46 343.041 503.753C343.139 504.046 343.188 504.373 343.188 504.734C343.188 505.076 343.14 505.39 343.046 505.677C342.955 505.963 342.816 506.214 342.631 506.429C342.445 506.64 342.211 506.805 341.928 506.922C341.648 507.039 341.317 507.098 340.937 507.098C340.65 507.098 340.378 507.059 340.121 506.98C339.867 506.899 339.639 506.777 339.438 506.614C339.239 506.448 339.076 506.243 338.949 505.999C338.826 505.752 338.747 505.462 338.715 505.13H339.574C339.613 505.397 339.691 505.621 339.809 505.804C339.926 505.986 340.079 506.124 340.268 506.219C340.46 506.31 340.683 506.355 340.937 506.355C341.151 506.355 341.342 506.318 341.508 506.243C341.674 506.168 341.814 506.061 341.928 505.921C342.042 505.781 342.128 505.612 342.187 505.413C342.248 505.215 342.279 504.992 342.279 504.744C342.279 504.52 342.248 504.311 342.187 504.119C342.125 503.927 342.032 503.759 341.908 503.616C341.788 503.473 341.64 503.362 341.464 503.284C341.288 503.203 341.086 503.162 340.858 503.162C340.556 503.162 340.326 503.203 340.17 503.284C340.017 503.366 339.859 503.476 339.696 503.616ZM348.642 502.879V503.963C348.642 504.546 348.59 505.037 348.485 505.438C348.381 505.838 348.231 506.16 348.036 506.404C347.841 506.648 347.605 506.826 347.328 506.937C347.055 507.044 346.745 507.098 346.4 507.098C346.127 507.098 345.875 507.063 345.644 506.995C345.412 506.927 345.204 506.818 345.019 506.668C344.836 506.515 344.68 506.316 344.55 506.072C344.42 505.828 344.32 505.532 344.252 505.184C344.184 504.835 344.149 504.428 344.149 503.963V502.879C344.149 502.296 344.201 501.808 344.306 501.414C344.413 501.02 344.564 500.704 344.76 500.467C344.955 500.226 345.189 500.053 345.463 499.949C345.74 499.845 346.049 499.793 346.391 499.793C346.667 499.793 346.921 499.827 347.152 499.896C347.387 499.961 347.595 500.066 347.777 500.213C347.96 500.356 348.114 500.548 348.241 500.789C348.371 501.027 348.471 501.318 348.539 501.663C348.607 502.008 348.642 502.413 348.642 502.879ZM347.733 504.109V502.728C347.733 502.409 347.714 502.129 347.675 501.888C347.639 501.644 347.585 501.435 347.514 501.263C347.442 501.09 347.351 500.95 347.24 500.843C347.133 500.735 347.007 500.657 346.864 500.608C346.724 500.556 346.566 500.53 346.391 500.53C346.176 500.53 345.985 500.571 345.819 500.652C345.653 500.73 345.513 500.856 345.399 501.028C345.289 501.201 345.204 501.427 345.146 501.707C345.087 501.987 345.058 502.327 345.058 502.728V504.109C345.058 504.428 345.076 504.71 345.111 504.954C345.15 505.198 345.207 505.41 345.282 505.589C345.357 505.765 345.448 505.91 345.556 506.023C345.663 506.137 345.787 506.222 345.927 506.277C346.07 506.329 346.228 506.355 346.4 506.355C346.622 506.355 346.815 506.313 346.981 506.229C347.147 506.144 347.286 506.012 347.396 505.833C347.51 505.651 347.595 505.418 347.65 505.135C347.706 504.848 347.733 504.507 347.733 504.109ZM349.726 501.634V501.258C349.726 500.988 349.784 500.742 349.901 500.521C350.019 500.299 350.186 500.122 350.404 499.988C350.622 499.855 350.881 499.788 351.181 499.788C351.487 499.788 351.747 499.855 351.962 499.988C352.18 500.122 352.348 500.299 352.465 500.521C352.582 500.742 352.641 500.988 352.641 501.258V501.634C352.641 501.897 352.582 502.14 352.465 502.361C352.351 502.583 352.185 502.76 351.967 502.894C351.752 503.027 351.493 503.094 351.19 503.094C350.888 503.094 350.626 503.027 350.404 502.894C350.186 502.76 350.019 502.583 349.901 502.361C349.784 502.14 349.726 501.897 349.726 501.634ZM350.404 501.258V501.634C350.404 501.784 350.432 501.925 350.487 502.059C350.546 502.192 350.634 502.301 350.751 502.386C350.868 502.467 351.015 502.508 351.19 502.508C351.366 502.508 351.511 502.467 351.625 502.386C351.739 502.301 351.824 502.192 351.879 502.059C351.934 501.925 351.962 501.784 351.962 501.634V501.258C351.962 501.105 351.933 500.962 351.874 500.828C351.819 500.691 351.732 500.582 351.615 500.501C351.501 500.416 351.356 500.374 351.181 500.374C351.008 500.374 350.863 500.416 350.746 500.501C350.632 500.582 350.546 500.691 350.487 500.828C350.432 500.962 350.404 501.105 350.404 501.258ZM353.188 505.638V505.257C353.188 504.99 353.246 504.746 353.363 504.524C353.48 504.303 353.648 504.126 353.866 503.992C354.084 503.859 354.343 503.792 354.643 503.792C354.949 503.792 355.209 503.859 355.424 503.992C355.642 504.126 355.81 504.303 355.927 504.524C356.044 504.746 356.103 504.99 356.103 505.257V505.638C356.103 505.905 356.044 506.149 355.927 506.37C355.813 506.591 355.647 506.769 355.429 506.902C355.214 507.036 354.955 507.103 354.652 507.103C354.35 507.103 354.089 507.036 353.871 506.902C353.653 506.769 353.484 506.591 353.363 506.37C353.246 506.149 353.188 505.905 353.188 505.638ZM353.866 505.257V505.638C353.866 505.787 353.894 505.931 353.949 506.067C354.008 506.201 354.096 506.31 354.213 506.395C354.33 506.476 354.477 506.517 354.652 506.517C354.828 506.517 354.973 506.476 355.087 506.395C355.204 506.31 355.29 506.201 355.346 506.067C355.401 505.934 355.429 505.791 355.429 505.638V505.257C355.429 505.104 355.399 504.961 355.341 504.827C355.285 504.694 355.199 504.586 355.082 504.505C354.968 504.42 354.822 504.378 354.643 504.378C354.47 504.378 354.325 504.42 354.208 504.505C354.094 504.586 354.008 504.694 353.949 504.827C353.894 504.961 353.866 505.104 353.866 505.257ZM354.867 500.901L351.396 506.458L350.888 506.136L354.359 500.579L354.867 500.901Z" fill="#363870"/>
    <rect x="462" y="486" width="90" height="8" rx="4" fill="#209D7F"/>
    <path d="M466.614 505.203C466.614 505.037 466.588 504.891 466.536 504.764C466.487 504.633 466.399 504.516 466.272 504.412C466.149 504.308 465.976 504.209 465.755 504.114C465.537 504.02 465.26 503.924 464.925 503.826C464.573 503.722 464.256 503.606 463.973 503.479C463.689 503.349 463.447 503.201 463.245 503.035C463.043 502.869 462.889 502.679 462.781 502.464C462.674 502.249 462.62 502.003 462.62 501.727C462.62 501.45 462.677 501.194 462.791 500.96C462.905 500.726 463.068 500.522 463.279 500.35C463.494 500.174 463.75 500.037 464.046 499.939C464.342 499.842 464.673 499.793 465.037 499.793C465.571 499.793 466.023 499.896 466.395 500.101C466.769 500.302 467.054 500.568 467.249 500.896C467.444 501.222 467.542 501.57 467.542 501.941H466.604C466.604 501.674 466.548 501.438 466.434 501.233C466.32 501.025 466.147 500.862 465.916 500.745C465.685 500.625 465.392 500.564 465.037 500.564C464.702 500.564 464.425 500.615 464.207 500.716C463.989 500.817 463.826 500.953 463.719 501.126C463.615 501.299 463.562 501.495 463.562 501.717C463.562 501.867 463.593 502.003 463.655 502.127C463.72 502.247 463.82 502.36 463.953 502.464C464.09 502.568 464.262 502.664 464.471 502.752C464.682 502.84 464.935 502.924 465.228 503.006C465.631 503.12 465.979 503.247 466.272 503.387C466.565 503.527 466.806 503.685 466.995 503.86C467.187 504.033 467.329 504.23 467.42 504.451C467.514 504.669 467.562 504.917 467.562 505.193C467.562 505.483 467.503 505.745 467.386 505.979C467.269 506.214 467.101 506.414 466.883 506.58C466.665 506.746 466.403 506.875 466.097 506.966C465.794 507.054 465.455 507.098 465.081 507.098C464.752 507.098 464.428 507.052 464.109 506.961C463.794 506.87 463.506 506.733 463.245 506.551C462.988 506.368 462.781 506.144 462.625 505.877C462.472 505.607 462.396 505.294 462.396 504.939H463.333C463.333 505.184 463.38 505.394 463.475 505.569C463.569 505.742 463.698 505.885 463.86 505.999C464.026 506.113 464.214 506.198 464.422 506.253C464.633 506.305 464.853 506.331 465.081 506.331C465.41 506.331 465.688 506.285 465.916 506.194C466.144 506.103 466.316 505.973 466.434 505.804C466.554 505.634 466.614 505.434 466.614 505.203ZM469.964 506.062L471.321 501.717H471.917L471.8 502.581L470.418 507H469.837L469.964 506.062ZM469.051 501.717L470.208 506.111L470.291 507H469.681L468.147 501.717H469.051ZM473.216 506.077L474.319 501.717H475.218L473.685 507H473.079L473.216 506.077ZM472.049 501.717L473.377 505.989L473.528 507H472.952L471.531 502.571L471.414 501.717H472.049ZM475.906 504.417V504.305C475.906 503.924 475.962 503.571 476.072 503.245C476.183 502.916 476.342 502.632 476.551 502.391C476.759 502.146 477.011 501.958 477.308 501.824C477.604 501.688 477.936 501.619 478.304 501.619C478.675 501.619 479.008 501.688 479.305 501.824C479.604 501.958 479.858 502.146 480.066 502.391C480.278 502.632 480.439 502.916 480.55 503.245C480.66 503.571 480.716 503.924 480.716 504.305V504.417C480.716 504.798 480.66 505.151 480.55 505.477C480.439 505.802 480.278 506.087 480.066 506.331C479.858 506.572 479.606 506.761 479.31 506.897C479.017 507.031 478.685 507.098 478.313 507.098C477.942 507.098 477.609 507.031 477.312 506.897C477.016 506.761 476.762 506.572 476.551 506.331C476.342 506.087 476.183 505.802 476.072 505.477C475.962 505.151 475.906 504.798 475.906 504.417ZM476.81 504.305V504.417C476.81 504.681 476.84 504.93 476.902 505.164C476.964 505.395 477.057 505.6 477.181 505.779C477.308 505.958 477.465 506.1 477.654 506.204C477.843 506.305 478.063 506.355 478.313 506.355C478.561 506.355 478.777 506.305 478.963 506.204C479.152 506.1 479.308 505.958 479.432 505.779C479.555 505.6 479.648 505.395 479.71 505.164C479.775 504.93 479.808 504.681 479.808 504.417V504.305C479.808 504.044 479.775 503.799 479.71 503.567C479.648 503.333 479.554 503.126 479.427 502.947C479.303 502.765 479.147 502.622 478.958 502.518C478.772 502.413 478.554 502.361 478.304 502.361C478.056 502.361 477.838 502.413 477.649 502.518C477.464 502.622 477.308 502.765 477.181 502.947C477.057 503.126 476.964 503.333 476.902 503.567C476.84 503.799 476.81 504.044 476.81 504.305ZM482.752 502.732V509.031H481.844V501.717H482.674L482.752 502.732ZM486.312 504.314V504.417C486.312 504.801 486.266 505.158 486.175 505.486C486.084 505.812 485.95 506.095 485.774 506.336C485.602 506.577 485.389 506.764 485.135 506.897C484.881 507.031 484.59 507.098 484.261 507.098C483.925 507.098 483.629 507.042 483.372 506.932C483.115 506.821 482.897 506.66 482.718 506.448C482.539 506.237 482.396 505.983 482.288 505.687C482.184 505.39 482.112 505.057 482.073 504.686V504.139C482.112 503.748 482.186 503.398 482.293 503.089C482.4 502.78 482.542 502.516 482.718 502.298C482.897 502.076 483.113 501.909 483.367 501.795C483.621 501.678 483.914 501.619 484.246 501.619C484.578 501.619 484.873 501.684 485.13 501.814C485.387 501.941 485.604 502.124 485.779 502.361C485.955 502.599 486.087 502.884 486.175 503.216C486.266 503.545 486.312 503.911 486.312 504.314ZM485.403 504.417V504.314C485.403 504.051 485.376 503.803 485.32 503.572C485.265 503.338 485.179 503.133 485.062 502.957C484.948 502.778 484.801 502.638 484.622 502.537C484.443 502.433 484.23 502.381 483.982 502.381C483.755 502.381 483.556 502.42 483.387 502.498C483.221 502.576 483.079 502.682 482.962 502.815C482.845 502.946 482.749 503.095 482.674 503.265C482.602 503.431 482.549 503.603 482.513 503.782V505.047C482.578 505.275 482.669 505.49 482.786 505.691C482.903 505.89 483.06 506.051 483.255 506.175C483.45 506.295 483.696 506.355 483.992 506.355C484.236 506.355 484.446 506.305 484.622 506.204C484.801 506.1 484.948 505.958 485.062 505.779C485.179 505.6 485.265 505.395 485.32 505.164C485.376 504.93 485.403 504.681 485.403 504.417ZM487.479 506.521C487.479 506.368 487.526 506.24 487.62 506.136C487.718 506.028 487.858 505.975 488.04 505.975C488.222 505.975 488.361 506.028 488.455 506.136C488.553 506.24 488.602 506.368 488.602 506.521C488.602 506.671 488.553 506.798 488.455 506.902C488.361 507.007 488.222 507.059 488.04 507.059C487.858 507.059 487.718 507.007 487.62 506.902C487.526 506.798 487.479 506.671 487.479 506.521ZM491.307 507H490.403V501.258C490.403 500.857 490.481 500.519 490.638 500.242C490.794 499.965 491.017 499.756 491.307 499.612C491.596 499.469 491.94 499.397 492.337 499.397C492.571 499.397 492.801 499.427 493.025 499.485C493.25 499.541 493.481 499.611 493.719 499.695L493.567 500.457C493.418 500.398 493.243 500.343 493.045 500.291C492.85 500.236 492.635 500.208 492.4 500.208C492.013 500.208 491.733 500.296 491.561 500.472C491.391 500.644 491.307 500.906 491.307 501.258V507ZM492.386 501.717V502.41H489.568V501.717H492.386ZM494.163 501.717V507H493.26V501.717H494.163ZM499.349 503.001H499.993C500.309 503.001 500.569 502.949 500.774 502.845C500.983 502.737 501.137 502.592 501.238 502.41C501.342 502.225 501.395 502.016 501.395 501.785C501.395 501.512 501.349 501.282 501.258 501.097C501.167 500.911 501.03 500.771 500.848 500.677C500.665 500.582 500.434 500.535 500.154 500.535C499.9 500.535 499.676 500.586 499.48 500.687C499.288 500.784 499.137 500.924 499.026 501.106C498.919 501.289 498.865 501.504 498.865 501.751H497.962C497.962 501.39 498.053 501.061 498.235 500.765C498.418 500.468 498.673 500.232 499.002 500.057C499.334 499.881 499.718 499.793 500.154 499.793C500.584 499.793 500.96 499.869 501.282 500.022C501.604 500.172 501.855 500.397 502.034 500.696C502.213 500.993 502.303 501.362 502.303 501.805C502.303 501.984 502.26 502.176 502.176 502.381C502.094 502.583 501.966 502.771 501.79 502.947C501.618 503.123 501.393 503.268 501.116 503.382C500.84 503.493 500.507 503.548 500.12 503.548H499.349V503.001ZM499.349 503.743V503.201H500.12C500.573 503.201 500.947 503.255 501.243 503.362C501.539 503.47 501.772 503.613 501.941 503.792C502.114 503.971 502.234 504.168 502.303 504.383C502.374 504.594 502.41 504.806 502.41 505.018C502.41 505.35 502.353 505.644 502.239 505.901C502.129 506.159 501.971 506.377 501.766 506.556C501.564 506.735 501.326 506.87 501.053 506.961C500.779 507.052 500.481 507.098 500.159 507.098C499.85 507.098 499.559 507.054 499.285 506.966C499.015 506.878 498.776 506.751 498.567 506.585C498.359 506.416 498.196 506.209 498.079 505.965C497.962 505.717 497.903 505.436 497.903 505.12H498.807C498.807 505.368 498.86 505.584 498.968 505.77C499.078 505.955 499.235 506.1 499.437 506.204C499.642 506.305 499.882 506.355 500.159 506.355C500.436 506.355 500.674 506.308 500.872 506.214C501.074 506.116 501.229 505.97 501.336 505.774C501.447 505.579 501.502 505.333 501.502 505.037C501.502 504.741 501.44 504.498 501.316 504.31C501.193 504.118 501.017 503.976 500.789 503.885C500.564 503.79 500.299 503.743 499.993 503.743H499.349ZM508.118 502.879V503.963C508.118 504.546 508.066 505.037 507.962 505.438C507.858 505.838 507.708 506.16 507.513 506.404C507.317 506.648 507.081 506.826 506.805 506.937C506.531 507.044 506.222 507.098 505.877 507.098C505.604 507.098 505.351 507.063 505.12 506.995C504.889 506.927 504.681 506.818 504.495 506.668C504.313 506.515 504.157 506.316 504.026 506.072C503.896 505.828 503.797 505.532 503.729 505.184C503.66 504.835 503.626 504.428 503.626 503.963V502.879C503.626 502.296 503.678 501.808 503.782 501.414C503.89 501.02 504.041 500.704 504.236 500.467C504.432 500.226 504.666 500.053 504.939 499.949C505.216 499.845 505.525 499.793 505.867 499.793C506.144 499.793 506.398 499.827 506.629 499.896C506.863 499.961 507.072 500.066 507.254 500.213C507.436 500.356 507.591 500.548 507.718 500.789C507.848 501.027 507.947 501.318 508.016 501.663C508.084 502.008 508.118 502.413 508.118 502.879ZM507.21 504.109V502.728C507.21 502.409 507.19 502.129 507.151 501.888C507.116 501.644 507.062 501.435 506.99 501.263C506.919 501.09 506.827 500.95 506.717 500.843C506.609 500.735 506.484 500.657 506.341 500.608C506.201 500.556 506.043 500.53 505.867 500.53C505.652 500.53 505.462 500.571 505.296 500.652C505.13 500.73 504.99 500.856 504.876 501.028C504.765 501.201 504.681 501.427 504.622 501.707C504.563 501.987 504.534 502.327 504.534 502.728V504.109C504.534 504.428 504.552 504.71 504.588 504.954C504.627 505.198 504.684 505.41 504.759 505.589C504.834 505.765 504.925 505.91 505.032 506.023C505.14 506.137 505.263 506.222 505.403 506.277C505.547 506.329 505.704 506.355 505.877 506.355C506.098 506.355 506.292 506.313 506.458 506.229C506.624 506.144 506.762 506.012 506.873 505.833C506.987 505.651 507.072 505.418 507.127 505.135C507.182 504.848 507.21 504.507 507.21 504.109ZM509.202 501.634V501.258C509.202 500.988 509.261 500.742 509.378 500.521C509.495 500.299 509.663 500.122 509.881 499.988C510.099 499.855 510.358 499.788 510.657 499.788C510.963 499.788 511.224 499.855 511.438 499.988C511.657 500.122 511.824 500.299 511.941 500.521C512.059 500.742 512.117 500.988 512.117 501.258V501.634C512.117 501.897 512.059 502.14 511.941 502.361C511.827 502.583 511.661 502.76 511.443 502.894C511.229 503.027 510.97 503.094 510.667 503.094C510.364 503.094 510.102 503.027 509.881 502.894C509.663 502.76 509.495 502.583 509.378 502.361C509.261 502.14 509.202 501.897 509.202 501.634ZM509.881 501.258V501.634C509.881 501.784 509.909 501.925 509.964 502.059C510.022 502.192 510.11 502.301 510.228 502.386C510.345 502.467 510.491 502.508 510.667 502.508C510.843 502.508 510.988 502.467 511.102 502.386C511.215 502.301 511.3 502.192 511.355 502.059C511.411 501.925 511.438 501.784 511.438 501.634V501.258C511.438 501.105 511.409 500.962 511.351 500.828C511.295 500.691 511.209 500.582 511.092 500.501C510.978 500.416 510.833 500.374 510.657 500.374C510.485 500.374 510.34 500.416 510.223 500.501C510.109 500.582 510.022 500.691 509.964 500.828C509.909 500.962 509.881 501.105 509.881 501.258ZM512.664 505.638V505.257C512.664 504.99 512.723 504.746 512.84 504.524C512.957 504.303 513.125 504.126 513.343 503.992C513.561 503.859 513.82 503.792 514.119 503.792C514.425 503.792 514.686 503.859 514.9 503.992C515.118 504.126 515.286 504.303 515.403 504.524C515.521 504.746 515.579 504.99 515.579 505.257V505.638C515.579 505.905 515.521 506.149 515.403 506.37C515.289 506.591 515.123 506.769 514.905 506.902C514.69 507.036 514.432 507.103 514.129 507.103C513.826 507.103 513.566 507.036 513.348 506.902C513.13 506.769 512.96 506.591 512.84 506.37C512.723 506.149 512.664 505.905 512.664 505.638ZM513.343 505.257V505.638C513.343 505.787 513.37 505.931 513.426 506.067C513.484 506.201 513.572 506.31 513.689 506.395C513.807 506.476 513.953 506.517 514.129 506.517C514.305 506.517 514.45 506.476 514.563 506.395C514.681 506.31 514.767 506.201 514.822 506.067C514.878 505.934 514.905 505.791 514.905 505.638V505.257C514.905 505.104 514.876 504.961 514.817 504.827C514.762 504.694 514.676 504.586 514.559 504.505C514.445 504.42 514.298 504.378 514.119 504.378C513.947 504.378 513.802 504.42 513.685 504.505C513.571 504.586 513.484 504.694 513.426 504.827C513.37 504.961 513.343 505.104 513.343 505.257ZM514.344 500.901L510.872 506.458L510.364 506.136L513.836 500.579L514.344 500.901Z" fill="#363870"/>
    <rect x="558" y="486" width="60" height="8" rx="4" fill="#4A74E6"/>
    <path d="M560.695 504.852L562.106 499.891H562.79L562.395 501.819L560.876 507H560.197L560.695 504.852ZM559.235 499.891L560.358 504.754L560.695 507H560.021L558.298 499.891H559.235ZM564.616 504.749L565.715 499.891H566.657L564.938 507H564.265L564.616 504.749ZM562.893 499.891L564.265 504.852L564.763 507H564.084L562.619 501.819L562.219 499.891H562.893ZM568.312 499.891L570.021 502.615L571.73 499.891H572.829L570.583 503.411L572.883 507H571.774L570.021 504.222L568.269 507H567.16L569.46 503.411L567.214 499.891H568.312ZM580.876 506.258V507H576.223V506.351L578.552 503.758C578.838 503.439 579.06 503.169 579.216 502.947C579.375 502.723 579.486 502.522 579.548 502.347C579.613 502.168 579.646 501.985 579.646 501.8C579.646 501.565 579.597 501.354 579.499 501.165C579.405 500.973 579.265 500.82 579.079 500.706C578.894 500.592 578.669 500.535 578.405 500.535C578.09 500.535 577.826 500.597 577.614 500.721C577.406 500.841 577.25 501.01 577.146 501.229C577.041 501.447 576.989 501.697 576.989 501.98H576.086C576.086 501.58 576.174 501.214 576.35 500.882C576.525 500.55 576.786 500.286 577.131 500.091C577.476 499.892 577.901 499.793 578.405 499.793C578.854 499.793 579.239 499.873 579.558 500.032C579.877 500.188 580.121 500.41 580.29 500.696C580.463 500.979 580.549 501.312 580.549 501.692C580.549 501.901 580.513 502.112 580.441 502.327C580.373 502.539 580.277 502.75 580.153 502.962C580.033 503.174 579.891 503.382 579.729 503.587C579.569 503.792 579.398 503.994 579.216 504.192L577.312 506.258H580.876ZM586.306 502.879V503.963C586.306 504.546 586.254 505.037 586.149 505.438C586.045 505.838 585.896 506.16 585.7 506.404C585.505 506.648 585.269 506.826 584.992 506.937C584.719 507.044 584.41 507.098 584.064 507.098C583.791 507.098 583.539 507.063 583.308 506.995C583.076 506.927 582.868 506.818 582.683 506.668C582.5 506.515 582.344 506.316 582.214 506.072C582.084 505.828 581.984 505.532 581.916 505.184C581.848 504.835 581.813 504.428 581.813 503.963V502.879C581.813 502.296 581.866 501.808 581.97 501.414C582.077 501.02 582.229 500.704 582.424 500.467C582.619 500.226 582.854 500.053 583.127 499.949C583.404 499.845 583.713 499.793 584.055 499.793C584.331 499.793 584.585 499.827 584.816 499.896C585.051 499.961 585.259 500.066 585.441 500.213C585.624 500.356 585.778 500.548 585.905 500.789C586.035 501.027 586.135 501.318 586.203 501.663C586.271 502.008 586.306 502.413 586.306 502.879ZM585.397 504.109V502.728C585.397 502.409 585.378 502.129 585.339 501.888C585.303 501.644 585.249 501.435 585.178 501.263C585.106 501.09 585.015 500.95 584.904 500.843C584.797 500.735 584.672 500.657 584.528 500.608C584.388 500.556 584.23 500.53 584.055 500.53C583.84 500.53 583.649 500.571 583.483 500.652C583.317 500.73 583.177 500.856 583.063 501.028C582.953 501.201 582.868 501.427 582.81 501.707C582.751 501.987 582.722 502.327 582.722 502.728V504.109C582.722 504.428 582.74 504.71 582.775 504.954C582.814 505.198 582.871 505.41 582.946 505.589C583.021 505.765 583.112 505.91 583.22 506.023C583.327 506.137 583.451 506.222 583.591 506.277C583.734 506.329 583.892 506.355 584.064 506.355C584.286 506.355 584.479 506.313 584.646 506.229C584.812 506.144 584.95 506.012 585.061 505.833C585.174 505.651 585.259 505.418 585.314 505.135C585.37 504.848 585.397 504.507 585.397 504.109ZM587.39 501.634V501.258C587.39 500.988 587.448 500.742 587.565 500.521C587.683 500.299 587.85 500.122 588.068 499.988C588.286 499.855 588.545 499.788 588.845 499.788C589.151 499.788 589.411 499.855 589.626 499.988C589.844 500.122 590.012 500.299 590.129 500.521C590.246 500.742 590.305 500.988 590.305 501.258V501.634C590.305 501.897 590.246 502.14 590.129 502.361C590.015 502.583 589.849 502.76 589.631 502.894C589.416 503.027 589.157 503.094 588.854 503.094C588.552 503.094 588.29 503.027 588.068 502.894C587.85 502.76 587.683 502.583 587.565 502.361C587.448 502.14 587.39 501.897 587.39 501.634ZM588.068 501.258V501.634C588.068 501.784 588.096 501.925 588.151 502.059C588.21 502.192 588.298 502.301 588.415 502.386C588.532 502.467 588.679 502.508 588.854 502.508C589.03 502.508 589.175 502.467 589.289 502.386C589.403 502.301 589.488 502.192 589.543 502.059C589.598 501.925 589.626 501.784 589.626 501.634V501.258C589.626 501.105 589.597 500.962 589.538 500.828C589.483 500.691 589.396 500.582 589.279 500.501C589.165 500.416 589.021 500.374 588.845 500.374C588.672 500.374 588.527 500.416 588.41 500.501C588.296 500.582 588.21 500.691 588.151 500.828C588.096 500.962 588.068 501.105 588.068 501.258ZM590.852 505.638V505.257C590.852 504.99 590.91 504.746 591.027 504.524C591.145 504.303 591.312 504.126 591.53 503.992C591.748 503.859 592.007 503.792 592.307 503.792C592.613 503.792 592.873 503.859 593.088 503.992C593.306 504.126 593.474 504.303 593.591 504.524C593.708 504.746 593.767 504.99 593.767 505.257V505.638C593.767 505.905 593.708 506.149 593.591 506.37C593.477 506.591 593.311 506.769 593.093 506.902C592.878 507.036 592.619 507.103 592.316 507.103C592.014 507.103 591.753 507.036 591.535 506.902C591.317 506.769 591.148 506.591 591.027 506.37C590.91 506.149 590.852 505.905 590.852 505.638ZM591.53 505.257V505.638C591.53 505.787 591.558 505.931 591.613 506.067C591.672 506.201 591.76 506.31 591.877 506.395C591.994 506.476 592.141 506.517 592.316 506.517C592.492 506.517 592.637 506.476 592.751 506.395C592.868 506.31 592.954 506.201 593.01 506.067C593.065 505.934 593.093 505.791 593.093 505.638V505.257C593.093 505.104 593.063 504.961 593.005 504.827C592.95 504.694 592.863 504.586 592.746 504.505C592.632 504.42 592.486 504.378 592.307 504.378C592.134 504.378 591.989 504.42 591.872 504.505C591.758 504.586 591.672 504.694 591.613 504.827C591.558 504.961 591.53 505.104 591.53 505.257ZM592.531 500.901L589.06 506.458L588.552 506.136L592.023 500.579L592.531 500.901Z" fill="#363870"/>
    <defs>
        <linearGradient id="paint0_linear_0_1" x1="597.989" y1="405.99" x2="597.989" y2="445.996" gradientUnits="userSpaceOnUse">
            <stop stop-color="#F9AA4B"/>
            <stop offset="1" stop-color="#F7931A"/>
        </linearGradient>
    </defs>
</svg>
