<svg width="1080" height="733" viewBox="0 0 1080 733" fill="none" xmlns="http://www.w3.org/2000/svg">
    <g filter="url(#filter0_d_0_1)">
        <g clip-path="url(#clip0_0_1)">
            <rect width="837.23" height="34.8846" transform="translate(139.77 69.9468)" fill="#363870"/>
            <circle cx="160.7" cy="87.389" r="6.97692" fill="#FF4D4E"/>
            <circle cx="160.7" cy="87.389" r="6.54086" stroke="black" stroke-opacity="0.12" stroke-width="0.872114"/>
            <circle cx="183.375" cy="87.389" r="6.97692" fill="#FFB32C"/>
            <circle cx="183.375" cy="87.389" r="6.54086" stroke="black" stroke-opacity="0.12" stroke-width="0.872114"/>
            <circle cx="206.049" cy="87.389" r="6.97692" fill="#00C439"/>
            <circle cx="206.049" cy="87.389" r="6.54086" stroke="black" stroke-opacity="0.12" stroke-width="0.872114"/>
            <rect x="139.77" y="104.832" width="837.23" height="488.384" fill="#F1F2FE"/>
        </g>
        <rect x="140.206" y="70.3828" width="836.358" height="522.397" rx="8.28509" stroke="#8082C5" stroke-width="0.872114" shape-rendering="crispEdges"/>
    </g>
    <g filter="url(#filter1_d_0_1)">
        <rect x="314.193" y="432.746" width="502.338" height="209.307" rx="17.4423" fill="white"/>
        <rect x="390.939" y="467.63" width="125.584" height="20.9307" rx="6.97692" fill="#D8DAF4"/>
        <rect x="683.971" y="467.63" width="104.654" height="20.9307" rx="6.97692" fill="#D8DAF4"/>
        <circle cx="359.544" cy="478.096" r="17.4423" fill="#D8DAF4"/>
        <rect x="390.939" y="526.934" width="174.423" height="20.9307" rx="6.97692" fill="#D8DAF4"/>
        <rect x="732.809" y="526.934" width="55.8153" height="20.9307" rx="6.97692" fill="#D8DAF4"/>
        <circle cx="359.544" cy="537.399" r="17.4423" fill="#D8DAF4"/>
        <rect x="390.939" y="586.238" width="90.6999" height="20.9307" rx="6.97692" fill="#D8DAF4"/>
        <rect x="718.855" y="586.238" width="69.7692" height="20.9307" rx="6.97692" fill="#D8DAF4"/>
        <circle cx="359.544" cy="596.703" r="17.4423" fill="#D8DAF4"/>
    </g>
    <g filter="url(#filter2_d_0_1)">
        <rect x="649.083" y="202.508" width="209.307" height="209.307" rx="17.4423" fill="white"/>
        <path d="M753.737 237.393C764.747 237.393 775.601 239.998 785.411 244.997C795.222 249.996 803.71 257.245 810.181 266.152C816.653 275.06 820.925 285.373 822.647 296.247C824.37 307.122 823.494 318.25 820.091 328.722C816.689 339.193 810.857 348.711 803.071 356.496C795.286 364.281 785.768 370.114 775.297 373.516C764.825 376.919 753.697 377.794 742.823 376.072C731.948 374.35 721.635 370.078 712.728 363.606" stroke="#7075E9" stroke-width="13.9538" stroke-linecap="round"/>
        <path d="M698.565 349.867C689.546 338.216 684.448 324.009 684 309.282C683.552 294.555 687.778 280.064 696.072 267.887" stroke="#C6C9F4" stroke-width="13.9538" stroke-linecap="round"/>
        <path d="M708.981 253.639C716.393 247.441 725.013 242.85 734.292 240.157" stroke="#F1F2FE" stroke-width="13.9538" stroke-linecap="round"/>
        <path d="M728.03 320.066C726.725 320.058 725.465 319.839 724.251 319.41C723.046 318.98 721.964 318.282 721.006 317.316C720.048 316.35 719.288 315.07 718.726 313.476C718.173 311.882 717.896 309.924 717.896 307.604C717.905 305.473 718.148 303.569 718.627 301.893C719.114 300.208 719.808 298.779 720.708 297.607C721.617 296.434 722.703 295.542 723.966 294.931C725.23 294.311 726.646 294.002 728.216 294.002C729.909 294.002 731.403 294.332 732.7 294.993C733.997 295.645 735.037 296.533 735.822 297.656C736.615 298.779 737.094 300.039 737.259 301.435H731.969C731.763 300.551 731.329 299.857 730.668 299.353C730.008 298.85 729.19 298.598 728.216 298.598C726.564 298.598 725.308 299.316 724.45 300.753C723.599 302.19 723.165 304.143 723.149 306.613H723.322C723.702 305.861 724.214 305.221 724.858 304.693C725.511 304.156 726.25 303.747 727.076 303.466C727.91 303.177 728.789 303.033 729.714 303.033C731.218 303.033 732.555 303.388 733.728 304.098C734.901 304.8 735.826 305.766 736.503 306.997C737.18 308.227 737.519 309.635 737.519 311.221C737.519 312.939 737.118 314.467 736.317 315.805C735.524 317.143 734.414 318.191 732.985 318.951C731.564 319.703 729.913 320.074 728.03 320.066ZM728.005 315.854C728.831 315.854 729.57 315.656 730.222 315.26C730.875 314.863 731.387 314.326 731.758 313.649C732.13 312.972 732.316 312.212 732.316 311.37C732.316 310.527 732.13 309.772 731.758 309.103C731.395 308.434 730.891 307.901 730.247 307.505C729.603 307.108 728.868 306.91 728.042 306.91C727.423 306.91 726.849 307.026 726.32 307.257C725.8 307.488 725.342 307.81 724.945 308.223C724.557 308.636 724.251 309.115 724.028 309.66C723.805 310.197 723.694 310.771 723.694 311.382C723.694 312.2 723.88 312.947 724.251 313.624C724.631 314.302 725.143 314.842 725.787 315.247C726.44 315.652 727.179 315.854 728.005 315.854ZM750.223 320.277C748.092 320.268 746.259 319.744 744.723 318.703C743.195 317.663 742.018 316.156 741.192 314.182C740.375 312.208 739.97 309.834 739.978 307.059C739.978 304.292 740.387 301.934 741.205 299.985C742.03 298.036 743.207 296.554 744.735 295.538C746.271 294.514 748.101 294.002 750.223 294.002C752.346 294.002 754.171 294.514 755.699 295.538C757.235 296.562 758.416 298.049 759.241 299.998C760.067 301.938 760.476 304.292 760.468 307.059C760.468 309.842 760.055 312.22 759.229 314.194C758.411 316.168 757.239 317.675 755.711 318.716C754.183 319.756 752.354 320.277 750.223 320.277ZM750.223 315.829C751.677 315.829 752.837 315.099 753.704 313.637C754.571 312.175 755.001 309.982 754.992 307.059C754.992 305.134 754.794 303.532 754.398 302.252C754.01 300.972 753.456 300.01 752.738 299.366C752.028 298.722 751.189 298.4 750.223 298.4C748.778 298.4 747.622 299.122 746.754 300.567C745.887 302.013 745.45 304.176 745.441 307.059C745.441 309.008 745.635 310.635 746.023 311.94C746.42 313.236 746.977 314.211 747.696 314.863C748.414 315.507 749.257 315.829 750.223 315.829ZM777.133 314.962V313.624C777.133 312.609 777.348 311.675 777.777 310.825C778.215 309.966 778.847 309.28 779.673 308.768C780.507 308.248 781.523 307.988 782.72 307.988C783.934 307.988 784.954 308.244 785.78 308.756C786.614 309.268 787.242 309.953 787.663 310.812C788.092 311.663 788.307 312.6 788.307 313.624V314.962C788.307 315.978 788.092 316.915 787.663 317.774C787.233 318.625 786.602 319.306 785.768 319.818C784.933 320.339 783.918 320.599 782.72 320.599C781.506 320.599 780.486 320.339 779.66 319.818C778.834 319.306 778.207 318.625 777.777 317.774C777.348 316.915 777.133 315.978 777.133 314.962ZM780.738 313.624V314.962C780.738 315.549 780.878 316.102 781.159 316.622C781.448 317.143 781.969 317.403 782.72 317.403C783.472 317.403 783.984 317.147 784.256 316.635C784.537 316.123 784.677 315.565 784.677 314.962V313.624C784.677 313.021 784.545 312.46 784.281 311.94C784.017 311.419 783.496 311.159 782.72 311.159C781.977 311.159 781.461 311.419 781.172 311.94C780.883 312.46 780.738 313.021 780.738 313.624ZM764.113 300.444V299.106C764.113 298.082 764.332 297.144 764.77 296.294C765.208 295.435 765.839 294.749 766.665 294.237C767.499 293.725 768.507 293.469 769.688 293.469C770.91 293.469 771.934 293.725 772.76 294.237C773.586 294.749 774.214 295.435 774.643 296.294C775.073 297.144 775.287 298.082 775.287 299.106V300.444C775.287 301.468 775.068 302.405 774.631 303.256C774.201 304.106 773.569 304.788 772.735 305.3C771.909 305.803 770.894 306.055 769.688 306.055C768.482 306.055 767.462 305.799 766.628 305.287C765.802 304.767 765.175 304.086 764.745 303.243C764.324 302.393 764.113 301.459 764.113 300.444ZM767.743 299.106V300.444C767.743 301.046 767.883 301.604 768.164 302.116C768.453 302.628 768.961 302.884 769.688 302.884C770.448 302.884 770.964 302.628 771.236 302.116C771.517 301.604 771.658 301.046 771.658 300.444V299.106C771.658 298.503 771.525 297.941 771.261 297.421C770.997 296.901 770.472 296.64 769.688 296.64C768.953 296.64 768.445 296.905 768.164 297.433C767.883 297.962 767.743 298.519 767.743 299.106ZM765.749 319.719L783.191 294.349H786.436L768.994 319.719H765.749Z" fill="#7075E9"/>
    </g>
    <g filter="url(#filter3_d_0_1)">
        <rect x="70" y="132.739" width="558.153" height="279.077" rx="17.4423" fill="white"/>
        <path d="M97.9082 178.088H600.246" stroke="#F1F2FE" stroke-width="1.74423"/>
        <path d="M97.9082 240.881H600.246" stroke="#F1F2FE" stroke-width="1.74423"/>
        <path d="M97.9082 303.673H600.246" stroke="#F1F2FE" stroke-width="1.74423"/>
        <path d="M97.9082 366.465H600.246" stroke="#F1F2FE" stroke-width="1.74423"/>
        <path d="M97.9082 218.622L105.85 241.997L113.792 244.122L123.72 304.683L131.662 306.808L143.575 376.931L155.488 280.246L165.416 265.371V333.37L175.344 323.807L181.3 341.869L187.257 302.558L201.156 304.683L205.127 297.245L219.025 299.37L224.982 308.933L238.881 280.246L254.765 273.871L266.678 227.122L280.577 306.808L290.504 286.621L298.446 297.245L302.417 280.246L310.359 291.933L328.229 252.621L342.128 262.184L348.084 255.809L354.041 282.371L367.94 294.058L375.882 319.557L381.838 291.933L393.751 289.808L401.694 280.246L417.578 338.682L425.52 333.37L431.476 273.871L441.404 268.559L447.361 255.809L453.317 268.559L465.23 255.809L469.201 262.184L489.057 219.685L496.999 257.934L508.912 262.184L512.883 239.872L518.84 246.247L540.68 192.06L546.637 200.56L562.521 195.248L574.434 167.624L584.362 203.748L594.29 202.685L600.246 209.06" stroke="#7075E9" stroke-width="5.23269" stroke-linecap="round" stroke-linejoin="round"/>
    </g>
    <defs>
        <filter id="filter0_d_0_1" x="35.1158" y="0.177616" width="1046.54" height="732.576" filterUnits="userSpaceOnUse" color-interpolation-filters="sRGB">
            <feFlood flood-opacity="0" result="BackgroundImageFix"/>
            <feColorMatrix in="SourceAlpha" type="matrix" values="0 0 0 0 0 0 0 0 0 0 0 0 0 0 0 0 0 0 127 0" result="hardAlpha"/>
            <feOffset dy="34.8846"/>
            <feGaussianBlur stdDeviation="52.3269"/>
            <feComposite in2="hardAlpha" operator="out"/>
            <feColorMatrix type="matrix" values="0 0 0 0 0.211765 0 0 0 0 0.219608 0 0 0 0 0.439216 0 0 0 0.4 0"/>
            <feBlend mode="normal" in2="BackgroundImageFix" result="effect1_dropShadow_0_1"/>
            <feBlend mode="normal" in="SourceGraphic" in2="effect1_dropShadow_0_1" result="shape"/>
        </filter>
        <filter id="filter1_d_0_1" x="244.424" y="383.907" width="641.876" height="348.846" filterUnits="userSpaceOnUse" color-interpolation-filters="sRGB">
            <feFlood flood-opacity="0" result="BackgroundImageFix"/>
            <feColorMatrix in="SourceAlpha" type="matrix" values="0 0 0 0 0 0 0 0 0 0 0 0 0 0 0 0 0 0 127 0" result="hardAlpha"/>
            <feOffset dy="20.9307"/>
            <feGaussianBlur stdDeviation="34.8846"/>
            <feComposite in2="hardAlpha" operator="out"/>
            <feColorMatrix type="matrix" values="0 0 0 0 0.211765 0 0 0 0 0.219608 0 0 0 0 0.439216 0 0 0 0.32 0"/>
            <feBlend mode="normal" in2="BackgroundImageFix" result="effect1_dropShadow_0_1"/>
            <feBlend mode="normal" in="SourceGraphic" in2="effect1_dropShadow_0_1" result="shape"/>
        </filter>
        <filter id="filter2_d_0_1" x="579.314" y="153.669" width="348.846" height="348.846" filterUnits="userSpaceOnUse" color-interpolation-filters="sRGB">
            <feFlood flood-opacity="0" result="BackgroundImageFix"/>
            <feColorMatrix in="SourceAlpha" type="matrix" values="0 0 0 0 0 0 0 0 0 0 0 0 0 0 0 0 0 0 127 0" result="hardAlpha"/>
            <feOffset dy="20.9307"/>
            <feGaussianBlur stdDeviation="34.8846"/>
            <feComposite in2="hardAlpha" operator="out"/>
            <feColorMatrix type="matrix" values="0 0 0 0 0.211765 0 0 0 0 0.219608 0 0 0 0 0.439216 0 0 0 0.32 0"/>
            <feBlend mode="normal" in2="BackgroundImageFix" result="effect1_dropShadow_0_1"/>
            <feBlend mode="normal" in="SourceGraphic" in2="effect1_dropShadow_0_1" result="shape"/>
        </filter>
        <filter id="filter3_d_0_1" x="0.230843" y="83.9004" width="697.692" height="418.615" filterUnits="userSpaceOnUse" color-interpolation-filters="sRGB">
            <feFlood flood-opacity="0" result="BackgroundImageFix"/>
            <feColorMatrix in="SourceAlpha" type="matrix" values="0 0 0 0 0 0 0 0 0 0 0 0 0 0 0 0 0 0 127 0" result="hardAlpha"/>
            <feOffset dy="20.9307"/>
            <feGaussianBlur stdDeviation="34.8846"/>
            <feComposite in2="hardAlpha" operator="out"/>
            <feColorMatrix type="matrix" values="0 0 0 0 0.211765 0 0 0 0 0.219608 0 0 0 0 0.439216 0 0 0 0.32 0"/>
            <feBlend mode="normal" in2="BackgroundImageFix" result="effect1_dropShadow_0_1"/>
            <feBlend mode="normal" in="SourceGraphic" in2="effect1_dropShadow_0_1" result="shape"/>
        </filter>
        <clipPath id="clip0_0_1">
            <rect x="139.77" y="69.9468" width="837.23" height="523.269" rx="8.72114" fill="white"/>
        </clipPath>
    </defs>
</svg>
