<svg width="160" height="104" viewBox="0 0 160 104" fill="none" xmlns="http://www.w3.org/2000/svg">
    <rect width="160" height="104" fill="white"/>
    <g clip-path="url(#clip0_134_2799)">
        <path d="M91.9105 42.4482L89.4985 49.8289H87.6632L86.0432 44.8242L84.3879 49.8289H82.5519L80.1406 42.4482H81.9039L83.5599 47.6329L85.2872 42.4482H86.8712L88.5632 47.6689L90.2905 42.4482H91.9105Z" fill="#8082C5"/>
        <path d="M96.6257 44.68C97.0937 45.1127 97.3457 45.7247 97.3457 46.5887V49.8287H95.7977V49.1087C95.4737 49.6487 94.8977 49.9007 94.0704 49.9007C93.6384 49.9007 93.2424 49.8287 92.9544 49.6847C92.6304 49.5407 92.3784 49.3247 92.2344 49.0727C92.0544 48.8207 91.9824 48.5327 91.9824 48.1727C91.9824 47.6327 92.1984 47.2367 92.5944 46.9127C92.9904 46.6247 93.6024 46.4447 94.4304 46.4447H95.7257C95.7257 46.0847 95.6177 45.7967 95.4017 45.6167C95.1857 45.4367 94.8624 45.3287 94.4304 45.3287C94.1424 45.3287 93.8184 45.364 93.5304 45.4727C93.2424 45.5807 92.9904 45.6887 92.7744 45.868L92.1984 44.7167C92.5381 44.4848 92.9158 44.3142 93.3144 44.2127C93.7492 44.0975 94.1967 44.0371 94.6464 44.0327C95.4737 44.068 96.1577 44.2847 96.6257 44.6807V44.68ZM95.2217 48.6047C95.4377 48.4607 95.5817 48.28 95.6897 48.0287V47.4527H94.5744C93.8904 47.4527 93.5664 47.6687 93.5664 48.1007C93.5664 48.3167 93.6384 48.4607 93.8184 48.6047C93.9984 48.7127 94.2144 48.7847 94.5024 48.7847C94.7544 48.7847 95.0057 48.7487 95.2217 48.6047Z" fill="#8082C5"/>
        <path d="M104.33 44.1406L101.954 49.7926H100.263L97.8867 44.1406H99.5787L101.162 47.9926L102.782 44.1406H104.33Z" fill="#8082C5"/>
        <path d="M110.377 47.4528H106.094C106.166 47.8128 106.346 48.0648 106.634 48.2808C106.922 48.4968 107.282 48.5688 107.714 48.5688C108.002 48.5688 108.254 48.5328 108.505 48.4248C108.721 48.3528 108.937 48.2088 109.153 47.9928L110.017 48.9288C109.477 49.5408 108.721 49.8288 107.678 49.8288C107.03 49.8288 106.49 49.7208 105.986 49.4688C105.482 49.2168 105.122 48.8568 104.834 48.4248C104.568 47.9655 104.432 47.4432 104.438 46.9128C104.438 46.3728 104.582 45.8681 104.834 45.4008C105.089 44.9588 105.463 44.597 105.914 44.3561C106.382 44.1041 106.886 43.9961 107.462 43.9961C108.002 43.9961 108.505 44.1041 108.973 44.3561C109.405 44.6088 109.765 44.9328 110.017 45.4008C110.269 45.8328 110.413 46.3728 110.413 46.9488C110.413 47.0208 110.377 47.1648 110.377 47.4528ZM106.526 45.6168C106.274 45.8328 106.13 46.1208 106.058 46.4808H108.865C108.793 46.1208 108.649 45.8328 108.398 45.6168C108.146 45.4008 107.822 45.2921 107.462 45.2921C107.102 45.3288 106.778 45.4008 106.526 45.6168Z" fill="#8082C5"/>
        <path d="M112.032 49.7205C111.601 49.6125 111.241 49.4685 110.953 49.2885L111.493 48.1005C111.745 48.2445 112.032 48.3885 112.392 48.4965C112.732 48.5949 113.083 48.6434 113.436 48.6405C114.12 48.6405 114.48 48.4605 114.48 48.1365C114.48 47.9925 114.372 47.8485 114.192 47.7765C114.012 47.7045 113.724 47.6325 113.328 47.5965C112.86 47.5245 112.464 47.4525 112.176 47.3445C111.889 47.2365 111.601 47.0925 111.385 46.8765C111.169 46.6605 111.061 46.3005 111.061 45.9045C111.061 45.5445 111.169 45.2198 111.385 44.9685C111.601 44.6805 111.889 44.4645 112.284 44.3205C112.68 44.1765 113.148 44.1045 113.688 44.1045C114.084 44.1045 114.48 44.1398 114.876 44.2485C115.219 44.3121 115.547 44.4339 115.848 44.6085L115.308 45.7605C114.816 45.4756 114.257 45.3265 113.688 45.3285C113.328 45.3285 113.076 45.3638 112.896 45.4725C112.716 45.5805 112.644 45.6885 112.644 45.8678C112.644 46.0485 112.752 46.1565 112.932 46.2278C113.112 46.3005 113.436 46.3725 113.832 46.4445C114.3 46.5165 114.66 46.5885 114.984 46.6965C115.272 46.7685 115.524 46.9485 115.74 47.1645C115.956 47.3805 116.064 47.7045 116.064 48.1365C116.064 48.4965 115.956 48.7845 115.74 49.0725C115.524 49.3605 115.236 49.5765 114.804 49.7205C114.408 49.8645 113.904 49.9365 113.364 49.9365C112.915 49.8997 112.47 49.8275 112.032 49.7205Z" fill="#8082C5"/>
        <path d="M85.6125 59.1896H82.1925L81.5445 60.7736H79.7812L83.0565 53.3936H84.7485L88.0598 60.7736H86.2598L85.6125 59.1896ZM85.1085 57.8936L83.9565 55.0856L82.8045 57.8936H85.1085Z" fill="#C6C9F4"/>
        <path d="M89.2128 60.6653C88.7808 60.5573 88.4208 60.4133 88.1328 60.2333L88.6728 59.0453C88.9248 59.1893 89.2128 59.3333 89.5728 59.4413C89.9328 59.5493 90.2921 59.5853 90.6161 59.5853C91.3001 59.5853 91.6601 59.4053 91.6601 59.0813C91.6601 58.9373 91.5521 58.7933 91.3721 58.7213C91.1921 58.6493 90.9041 58.5773 90.5081 58.5413C90.0408 58.4693 89.6448 58.3973 89.3568 58.2893C89.0688 58.1813 88.7808 58.0373 88.5648 57.8213C88.3488 57.6053 88.2408 57.2453 88.2408 56.8493C88.2408 56.4893 88.3488 56.1646 88.5648 55.9133C88.7808 55.6253 89.0688 55.4093 89.4648 55.2653C89.8608 55.1213 90.3281 55.0493 90.8681 55.0493C91.2641 55.0493 91.6601 55.0846 92.0561 55.1933C92.4521 55.2653 92.7761 55.4093 93.0281 55.5533L92.4881 56.7053C91.9959 56.4204 91.4368 56.2713 90.8681 56.2733C90.5081 56.2733 90.2561 56.3086 90.0768 56.4173C89.8968 56.5253 89.8248 56.6333 89.8248 56.8133C89.8248 56.9933 89.9328 57.1013 90.1128 57.1733C90.2921 57.2453 90.6161 57.3173 91.0121 57.3893C91.4801 57.4613 91.8401 57.5333 92.1641 57.6413C92.4521 57.7133 92.7041 57.8933 92.9201 58.1093C93.1361 58.3253 93.2441 58.6493 93.2441 59.0813C93.2441 59.4413 93.1361 59.7293 92.9201 60.0173C92.7041 60.3053 92.4161 60.5213 91.9841 60.6653C91.5881 60.8093 91.0841 60.8813 90.5441 60.8813C90.0954 60.8445 89.6502 60.7722 89.2128 60.6653Z" fill="#C6C9F4"/>
        <path d="M94.7909 60.6653C94.3589 60.5573 93.9989 60.4133 93.7109 60.2333L94.2509 59.0453C94.5029 59.1893 94.7909 59.3333 95.1509 59.4413C95.4901 59.5397 95.8418 59.5882 96.1949 59.5853C96.8782 59.5853 97.2382 59.4053 97.2382 59.0813C97.2382 58.9373 97.1302 58.7933 96.9502 58.7213C96.7702 58.6493 96.4822 58.5773 96.0869 58.5413C95.6189 58.4693 95.2229 58.3973 94.9349 58.2893C94.6469 58.1813 94.3589 58.0373 94.1429 57.8213C93.9269 57.6053 93.8189 57.2453 93.8189 56.8493C93.8189 56.4893 93.9269 56.1646 94.1429 55.9133C94.3589 55.6253 94.6469 55.4093 95.0429 55.2653C95.4389 55.1213 95.9069 55.0493 96.4462 55.0493C96.8422 55.0493 97.2382 55.0846 97.6342 55.1933C98.0302 55.2653 98.3542 55.4093 98.6062 55.5533L98.0662 56.7053C97.574 56.4204 97.015 56.2713 96.4462 56.2733C96.0869 56.2733 95.8349 56.3086 95.6549 56.4173C95.4749 56.5253 95.4029 56.6333 95.4029 56.8133C95.4029 56.9933 95.5109 57.1013 95.6909 57.1733C95.8709 57.2453 96.1949 57.3173 96.5902 57.3893C97.0582 57.4613 97.4182 57.5333 97.7422 57.6413C98.0302 57.7133 98.2822 57.8933 98.4982 58.1093C98.7142 58.3253 98.8222 58.6493 98.8222 59.0813C98.8222 59.4413 98.7142 59.7293 98.4982 60.0173C98.2822 60.3053 97.9942 60.5213 97.5622 60.6653C97.1662 60.8093 96.6622 60.8813 96.1229 60.8813C95.6739 60.8445 95.2286 60.7723 94.7909 60.6653Z" fill="#C6C9F4"/>
        <path d="M100.946 60.4854C100.478 60.2334 100.118 59.8734 99.8298 59.4414C99.5645 58.9821 99.4277 58.4598 99.4338 57.9294C99.4338 57.3534 99.5778 56.8494 99.8298 56.4174C100.082 55.9854 100.478 55.6254 100.946 55.3727C101.413 55.1214 101.953 55.0127 102.565 55.0127C103.177 55.0127 103.681 55.1214 104.149 55.3727C104.617 55.6254 104.977 55.9854 105.265 56.4174C105.516 56.8494 105.66 57.3534 105.66 57.9294C105.66 58.5054 105.516 59.0094 105.265 59.4414C105.013 59.8734 104.617 60.2334 104.149 60.4861C103.681 60.7381 103.141 60.8461 102.565 60.8461C101.953 60.8461 101.413 60.7374 100.946 60.4861V60.4854ZM103.573 59.0814C103.861 58.7934 103.969 58.4334 103.969 57.9294C103.969 57.4254 103.825 57.0654 103.573 56.7774C103.439 56.6361 103.277 56.5245 103.097 56.4501C102.917 56.3757 102.724 56.34 102.529 56.3454C102.097 56.3454 101.773 56.4894 101.485 56.7774C101.197 57.0654 101.09 57.4254 101.09 57.9294C101.09 58.4334 101.233 58.7934 101.485 59.0814C101.773 59.3694 102.097 59.5134 102.529 59.5134C102.961 59.5134 103.321 59.3694 103.573 59.0814Z" fill="#C6C9F4"/>
        <path d="M107.858 60.4854C107.39 60.2334 106.994 59.8734 106.742 59.4414C106.454 59.0094 106.346 58.5054 106.346 57.9294C106.346 57.3534 106.49 56.8494 106.742 56.4174C107.03 55.9854 107.39 55.6254 107.858 55.3727C108.325 55.1214 108.865 55.0127 109.477 55.0127C110.089 55.0127 110.593 55.1214 111.025 55.3727C111.454 55.622 111.794 56.0001 111.997 56.4534L110.737 57.1381C110.449 56.6334 110.017 56.3454 109.477 56.3454C109.045 56.3454 108.685 56.4894 108.397 56.7774C108.11 57.0654 107.966 57.4254 107.966 57.9294C107.966 58.4334 108.11 58.7934 108.397 59.0814C108.685 59.3694 109.045 59.5134 109.477 59.5134C110.053 59.5134 110.449 59.2614 110.737 58.7214L111.997 59.4061C111.783 59.8422 111.445 60.2053 111.025 60.4501C110.593 60.7021 110.053 60.8454 109.477 60.8454C108.865 60.8454 108.325 60.7381 107.858 60.4854Z" fill="#C6C9F4"/>
        <path d="M113.04 54.0414C112.86 53.8614 112.752 53.6454 112.752 53.3934C112.752 53.1414 112.86 52.9254 113.04 52.7454C113.22 52.5654 113.472 52.4927 113.76 52.4927C114.048 52.4927 114.299 52.5654 114.479 52.7454C114.659 52.9254 114.767 53.1407 114.767 53.3934C114.767 53.6814 114.659 53.8974 114.479 54.0774C114.299 54.2574 114.048 54.3294 113.76 54.3294C113.472 54.2934 113.256 54.2214 113.04 54.0414ZM112.968 55.0854H114.623V60.7381H112.968V55.0847V55.0854Z" fill="#C6C9F4"/>
        <path d="M120.454 55.6255C120.921 56.0575 121.173 56.6702 121.173 57.5335V60.7735H119.626V60.0535C119.302 60.5942 118.726 60.8462 117.898 60.8462C117.466 60.8462 117.07 60.7742 116.782 60.6302C116.458 60.4862 116.206 60.2702 116.063 60.0182C115.883 59.7655 115.811 59.4775 115.811 59.1175C115.811 58.5775 116.027 58.1815 116.422 57.8575C116.818 57.5695 117.43 57.3895 118.258 57.3895H119.554C119.554 57.0295 119.446 56.7415 119.23 56.5615C119.014 56.3815 118.69 56.2735 118.258 56.2735C117.97 56.2735 117.646 56.3095 117.358 56.4175C117.07 56.5255 116.818 56.6335 116.602 56.8135L116.027 55.6615C116.366 55.4295 116.743 55.2589 117.142 55.1575C117.577 55.0423 118.024 54.9819 118.474 54.9775C119.302 55.0128 119.986 55.2295 120.454 55.6255ZM119.05 59.5502C119.266 59.4055 119.41 59.2255 119.518 58.9735V58.3975H118.402C117.718 58.3975 117.394 58.6135 117.394 59.0455C117.394 59.2615 117.466 59.4055 117.646 59.5495C117.826 59.6575 118.042 59.7302 118.33 59.7302C118.582 59.7302 118.834 59.6575 119.05 59.5495V59.5502Z" fill="#C6C9F4"/>
        <path d="M126.286 60.4862C126.142 60.5942 125.926 60.7022 125.674 60.7382C125.422 60.8102 125.206 60.8102 124.918 60.8102C124.234 60.8102 123.731 60.6302 123.371 60.3055C123.011 59.9455 122.831 59.4415 122.831 58.7935V56.4542H121.967V55.1942H122.831V53.8262H124.486V55.1942H125.89V56.4542H124.486V58.7582C124.486 59.0102 124.558 59.1902 124.666 59.2982C124.774 59.4422 124.954 59.4782 125.17 59.4782C125.422 59.4782 125.638 59.4062 125.818 59.2622L126.286 60.4869V60.4862Z" fill="#C6C9F4"/>
        <path d="M127.294 54.0414C127.114 53.8614 127.006 53.6454 127.006 53.3934C127.006 53.1414 127.114 52.9254 127.294 52.7454C127.474 52.5654 127.726 52.4927 128.013 52.4927C128.301 52.4927 128.553 52.5654 128.733 52.7454C128.913 52.9254 129.021 53.1407 129.021 53.3934C129.021 53.6814 128.913 53.8974 128.733 54.0774C128.553 54.2574 128.301 54.3294 128.013 54.3294C127.726 54.2934 127.474 54.2214 127.294 54.0414ZM127.222 55.0854H128.877V60.7381H127.222V55.0847V55.0854Z" fill="#C6C9F4"/>
        <path d="M131.469 60.4854C131.001 60.2334 130.641 59.8734 130.353 59.4414C130.088 58.9821 129.951 58.4598 129.957 57.9294C129.957 57.3534 130.101 56.8494 130.353 56.4174C130.605 55.9854 131.001 55.6254 131.469 55.3727C131.937 55.1214 132.477 55.0127 133.089 55.0127C133.701 55.0127 134.205 55.1214 134.673 55.3727C135.141 55.6254 135.501 55.9854 135.789 56.4174C136.041 56.8494 136.185 57.3534 136.185 57.9294C136.185 58.5054 136.041 59.0094 135.789 59.4414C135.537 59.8734 135.141 60.2334 134.673 60.4861C134.205 60.7381 133.665 60.8461 133.089 60.8461C132.477 60.8461 131.937 60.7374 131.469 60.4861V60.4854ZM134.097 59.0814C134.385 58.7934 134.493 58.4334 134.493 57.9294C134.493 57.4254 134.349 57.0654 134.097 56.7774C133.963 56.6361 133.801 56.5245 133.621 56.4501C133.441 56.3757 133.248 56.34 133.053 56.3454C132.621 56.3454 132.297 56.4894 132.009 56.7774C131.721 57.0654 131.613 57.4254 131.613 57.9294C131.613 58.4334 131.757 58.7934 132.009 59.0814C132.297 59.3694 132.621 59.5134 133.053 59.5134C133.485 59.5134 133.845 59.3694 134.097 59.0814Z" fill="#C6C9F4"/>
        <path d="M142.411 55.6612C142.843 56.0932 143.059 56.7052 143.059 57.5332V60.7732H141.403V57.7852C141.403 57.3532 141.295 56.9932 141.115 56.7772C140.935 56.5612 140.647 56.4532 140.252 56.4532C139.82 56.4532 139.496 56.5972 139.28 56.8492C139.028 57.1012 138.92 57.4972 138.92 58.0012V60.8092H137.264V55.0845H138.848V55.7332C139.069 55.4813 139.356 55.2946 139.676 55.1932C140 55.0492 140.36 55.0132 140.755 55.0132C141.439 55.0132 141.979 55.2292 142.411 55.6612Z" fill="#C6C9F4"/>
        <path d="M54.8017 40L47.0631 47.7767L39.2885 40L31.5132 47.7767L23.7746 40L16 47.7767L23.7746 55.5174L31.5132 63.2941L39.2885 55.5174L47.0631 63.2941L54.8017 55.5174L62.5762 47.7767L54.8024 40H54.8017Z" fill="#8082C5"/>
        <path d="M62.568 47.7808L54.8047 55.5455L62.5673 63.3102L70.3306 55.5455L62.5673 47.7808H62.568Z" fill="#C6C9F4"/>
    </g>
    <defs>
        <clipPath id="clip0_134_2799">
            <rect width="127.059" height="24" fill="white" transform="translate(16 40)"/>
        </clipPath>
    </defs>
</svg>
