<svg width="160" height="104" viewBox="0 0 160 104" fill="none" xmlns="http://www.w3.org/2000/svg">
    <rect width="160" height="104" fill="white"/>
    <path d="M46.0106 45.2404C46.8926 45.2404 47.7471 45.4461 48.5734 45.8584C49.4014 46.2715 50.0314 46.8055 50.4643 47.4612C50.8226 47.9961 51.078 48.6072 51.2314 49.2955L51.3 49.6469C51.4234 50.2169 51.4852 51.1264 51.4852 52.3761H42.3797C42.4183 53.6326 42.7166 54.6406 43.2729 55.4001C43.83 56.1595 44.6914 56.5392 45.8597 56.5392C46.9491 56.5392 47.8192 56.1809 48.4689 55.4635C48.84 55.0469 49.1031 54.5652 49.2574 54.0175H51.3103C51.2563 54.4726 51.0763 54.9801 50.7703 55.5389C50.4651 56.0978 50.1231 56.5546 49.7443 56.9095C49.11 57.5266 48.3257 57.9424 47.3906 58.1584C46.8315 58.2881 46.2588 58.3503 45.6849 58.3435C44.1394 58.3435 42.8289 57.7821 41.754 56.6601C40.68 55.5398 40.1426 53.9678 40.1426 51.9484C40.1426 49.9598 40.6834 48.3441 41.766 47.1029C42.8486 45.8618 44.2637 45.2412 46.0106 45.2412V45.2404ZM45.8837 47.0558C44.9246 47.0558 44.1206 47.4004 43.4709 48.0912C42.822 48.7812 42.4774 49.6581 42.4389 50.7226H49.3389C49.2549 49.8201 49.0569 49.0992 48.7474 48.5592C48.1757 47.5564 47.2217 47.0558 45.8837 47.0558ZM52.8651 45.5172H55.5677L58.4203 49.8775L61.3089 45.5172L63.8477 45.5755L59.6614 51.5549L64.0337 57.9038H61.3663L58.2806 53.2546L55.2892 57.9038H52.6449L57.0172 51.5549L52.8651 45.5172ZM70.7143 45.1589C72.1131 45.1589 73.2514 45.4984 74.1292 46.1772C75.0069 46.8552 75.5349 48.0235 75.7123 49.6812H73.6826C73.5591 48.9184 73.2771 48.2841 72.8366 47.7784C72.3951 47.2735 71.688 47.0206 70.7143 47.0206C69.384 47.0206 68.4334 47.6686 67.8609 48.9638C67.4897 49.8038 67.3037 50.8409 67.3037 52.0752C67.3037 53.3164 67.5669 54.3612 68.0923 55.2089C68.6186 56.0575 69.4466 56.4809 70.5746 56.4809C71.4403 56.4809 72.1269 56.2169 72.6334 55.6889C73.1391 55.1609 73.4897 54.4375 73.6826 53.5204H75.7123C75.4809 55.1626 74.9006 56.3635 73.9723 57.1229C73.0449 57.8824 71.8586 58.2629 70.4126 58.2629C68.7883 58.2629 67.494 57.6706 66.5272 56.4869C65.5603 55.3041 65.0777 53.8255 65.0777 52.0521C65.0777 49.8775 65.6074 48.1855 66.666 46.9752C67.7254 45.7641 69.0746 45.1589 70.7143 45.1589ZM77.8003 40.8569H79.8874V47.1946C80.3829 46.5698 80.8269 46.1309 81.2212 45.8764C81.894 45.4366 82.7332 45.2164 83.7377 45.2164C85.5394 45.2164 86.7609 45.8455 87.4029 47.1021C87.7509 47.7878 87.9249 48.7401 87.9249 49.9589V57.9038H85.7794V50.0969C85.7794 49.1884 85.6629 48.5206 85.4314 48.0964C85.0526 47.4184 84.3411 47.0789 83.2971 47.0789C82.4314 47.0789 81.6463 47.3755 80.9434 47.9695C80.2397 48.5626 79.8874 49.6846 79.8874 51.3346V57.9038H77.8003V40.8569ZM95.8809 45.2172C97.3423 45.2172 98.5294 45.4941 99.4414 46.0495C100.346 46.6049 100.798 47.4681 100.798 48.6398V55.7755C100.798 55.9915 100.843 56.1655 100.931 56.2958C101.02 56.4269 101.208 56.4929 101.494 56.4929C101.587 56.4929 101.691 56.4869 101.807 56.4758C101.923 56.4638 102.047 56.4466 102.178 56.4235V57.9612L101.826 58.0555C101.697 58.0887 101.567 58.1153 101.436 58.1352C101.266 58.1584 101.033 58.1695 100.74 58.1695C100.021 58.1695 99.4989 57.9149 99.1749 57.4066C99.0043 57.1366 98.8843 56.7552 98.8149 56.2615C98.3897 56.8169 97.7786 57.2986 96.9823 57.7075C96.186 58.1155 95.3083 58.3204 94.35 58.3204C93.198 58.3204 92.2569 57.9715 91.5257 57.2738C90.7954 56.5761 90.4303 55.7026 90.4303 54.6544C90.4303 53.5058 90.7894 52.6144 91.5086 51.9826C92.2277 51.3501 93.1714 50.9609 94.338 50.8144L97.6671 50.3978C98.1463 50.3361 98.4669 50.1355 98.6297 49.7969C98.7223 49.6118 98.7686 49.3452 98.7686 48.9989C98.7686 48.2892 98.5157 47.7749 98.0092 47.4544C97.5026 47.1346 96.7774 46.9744 95.8346 46.9744C94.7443 46.9744 93.9711 47.2675 93.5151 47.8538C93.2597 48.1778 93.0934 48.6595 93.0163 49.2998H91.068C91.1066 47.7724 91.6029 46.7112 92.5577 46.1129C93.5126 45.5155 94.6209 45.2172 95.8809 45.2172ZM98.7103 51.6012C98.4557 51.7624 98.1274 51.8978 97.7246 52.0058C97.3226 52.1138 96.9283 52.1909 96.5417 52.2372L95.2774 52.3984C94.5197 52.4986 93.9514 52.6572 93.5726 52.8732C92.9314 53.2349 92.61 53.8135 92.61 54.6081C92.61 55.2089 92.8303 55.6829 93.2709 56.0309C93.7123 56.3772 94.2343 56.5504 94.8369 56.5504C95.5714 56.5504 96.2829 56.3806 96.9712 56.0421C98.1309 55.4789 98.7112 54.5575 98.7112 53.2778V51.6012H98.7103ZM104.219 45.5172H106.203V47.2752C106.791 46.5509 107.413 46.0306 108.069 45.7144C108.727 45.3981 109.458 45.2404 110.262 45.2404C112.024 45.2404 113.216 45.8532 113.834 47.0789C114.174 47.7501 114.345 48.7092 114.345 49.9589V57.9038H112.221V50.0969C112.221 49.3418 112.11 48.7324 111.885 48.2704C111.514 47.4989 110.841 47.1132 109.868 47.1132C109.372 47.1132 108.967 47.1638 108.65 47.2641C108.077 47.4338 107.575 47.7724 107.142 48.2815C106.794 48.6904 106.568 49.1129 106.463 49.5484C106.359 49.9838 106.307 50.6061 106.307 51.4161V57.9038H104.219V45.5181V45.5172ZM121.813 45.2978C122.787 45.2978 123.638 45.5369 124.365 46.0152C124.759 46.2844 125.161 46.6778 125.571 47.1946V45.6329H127.496V56.8975C127.496 58.4704 127.264 59.7115 126.8 60.6218C125.934 62.3018 124.299 63.1426 121.894 63.1426C120.557 63.1426 119.432 62.8435 118.52 62.2461C117.607 61.6486 117.097 60.7144 116.988 59.4415H119.111C119.211 59.9969 119.412 60.4246 119.714 60.7255C120.185 61.1884 120.927 61.4198 121.941 61.4198C123.541 61.4198 124.589 60.8566 125.084 59.7312C125.378 59.0678 125.512 57.8841 125.489 56.1809C125.072 56.8126 124.569 57.2832 123.981 57.5918C123.394 57.9004 122.617 58.0546 121.65 58.0546C120.305 58.0546 119.128 57.5781 118.119 56.6258C117.111 55.6744 116.606 54.0989 116.606 51.9012C116.606 49.8269 117.114 48.2086 118.131 47.0438C119.147 45.8798 120.375 45.2978 121.813 45.2978ZM122.196 47.1364C120.727 47.1364 119.721 47.8229 119.181 49.1952C118.894 49.9281 118.752 50.8872 118.752 52.0752C118.752 53.4706 119.035 54.5326 119.604 55.2612C120.172 55.9898 120.935 56.3541 121.894 56.3541C123.394 56.3541 124.449 55.6795 125.061 54.3304C125.401 53.5675 125.571 52.6761 125.571 51.6586C125.571 50.1244 125.253 48.9869 124.619 48.2472C123.985 47.5066 123.177 47.1364 122.196 47.1364ZM135.812 45.2404C136.693 45.2404 137.547 45.4461 138.375 45.8584C139.202 46.2715 139.832 46.8055 140.265 47.4612C140.623 47.9961 140.878 48.6072 141.032 49.2955L141.1 49.6469C141.224 50.2169 141.285 51.1264 141.285 52.3761H132.182C132.22 53.6326 132.518 54.6406 133.074 55.4001C133.631 56.1595 134.493 56.5392 135.661 56.5392C136.751 56.5392 137.62 56.1809 138.27 55.4635C138.641 55.0469 138.904 54.5652 139.059 54.0175H141.111C141.057 54.4726 140.877 54.9801 140.571 55.5389C140.267 56.0978 139.924 56.5546 139.545 56.9095C138.911 57.5266 138.127 57.9424 137.192 58.1584C136.633 58.2881 136.06 58.3503 135.486 58.3435C133.941 58.3435 132.63 57.7821 131.555 56.6601C130.48 55.5389 129.944 53.9678 129.944 51.9475C129.944 49.9589 130.484 48.3432 131.566 47.1021C132.649 45.8609 134.064 45.2404 135.812 45.2404ZM135.683 47.0558C134.725 47.0558 133.921 47.4004 133.271 48.0912C132.622 48.7812 132.278 49.6581 132.239 50.7226H139.139C139.055 49.8201 138.858 49.0992 138.548 48.5592C137.976 47.5564 137.022 47.0558 135.684 47.0558H135.683Z" fill="#8082C5"/>
    <path fill-rule="evenodd" clip-rule="evenodd" d="M26.4286 52L35.8571 61.4286H17L26.4286 52Z" fill="#8082C5"/>
    <path fill-rule="evenodd" clip-rule="evenodd" d="M26.4286 51.9999L35.8571 42.5713H17L26.4286 51.9999Z" fill="#8082C5"/>
</svg>
