<svg width="160" height="104" viewBox="0 0 160 104" fill="none" xmlns="http://www.w3.org/2000/svg">
    <rect width="160" height="104" fill="white"/>
    <path d="M38.7736 49.2037C38.7736 49.688 39.0429 50.0701 39.5736 50.3517C40.1058 50.6333 40.7556 50.8762 41.5215 51.0789C42.2874 51.2816 43.0563 51.5214 43.833 51.7922C44.6097 52.0629 45.2626 52.5271 45.7964 53.1738C46.3287 53.8237 46.5963 54.6421 46.5963 55.6293C46.5963 57.0248 46.0564 58.1187 44.9826 58.914C43.9057 59.7093 42.5566 60.1069 40.9274 60.1069C39.4931 60.1069 38.2631 59.8067 37.2373 59.2064C36.2115 58.6061 35.4626 57.7706 35 56.7046L37.6999 55.1326C38.2027 56.5282 39.2796 57.2244 40.9274 57.2244C42.5751 57.2244 43.3983 56.6829 43.3983 55.5983C43.3983 55.1326 43.129 54.7566 42.5984 54.4642C42.0661 54.1718 41.4163 53.9273 40.6504 53.7246C39.8845 53.522 39.114 53.2821 38.3389 53.0114C37.5622 52.7422 36.9093 52.2904 36.3755 51.6607C35.8432 51.0263 35.5756 50.2295 35.5756 49.2578C35.5756 47.921 36.083 46.8442 37.1042 46.0303C38.1207 45.2165 39.3833 44.8096 40.8964 44.8096C42.0986 44.8096 43.1677 45.0788 44.11 45.6095C45.0491 46.1433 45.7701 46.8828 46.273 47.8328L43.6272 49.3166C43.1244 48.2119 42.2146 47.658 40.8949 47.658C40.2945 47.658 39.7902 47.7895 39.3848 48.0494C38.9794 48.314 38.7736 48.6993 38.7736 49.2037Z" fill="#8082C5"/>
    <path d="M65.6521 45.1904H68.9662L64.402 59.7249H61.3199L58.2951 49.928L55.244 59.7249H52.162L47.5977 45.1904H50.9118L53.7309 55.2179L56.782 45.1904H59.7774L62.8022 55.2179L65.6521 45.1904Z" fill="#8082C5"/>
    <path d="M96.082 44.8115C98.0764 44.8115 99.783 45.5542 101.196 47.0349C102.608 48.5186 103.317 50.3242 103.317 52.4563C103.317 54.6069 102.608 56.4171 101.196 57.8916C99.7814 59.3661 98.0733 60.0995 96.082 60.0995C93.8742 60.0995 92.1769 59.2857 90.9948 57.6564V65.5333H87.8555V45.1906H90.9948V47.2824C92.18 45.6377 93.8742 44.8115 96.082 44.8115ZM92.3037 55.7874C93.1779 56.6693 94.2733 57.1087 95.5885 57.1087C96.9052 57.1087 98.0021 56.6693 98.8732 55.7874C99.7474 54.9055 100.181 53.7946 100.181 52.4578C100.181 51.121 99.7458 50.0132 98.8732 49.1282C98.0021 48.2463 96.9067 47.8069 95.5885 47.8069C94.2703 47.8069 93.1748 48.2463 92.3037 49.1282C91.4327 50.0101 90.9964 51.121 90.9964 52.4578C90.9964 53.7946 91.4327 54.9055 92.3037 55.7874Z" fill="#8082C5"/>
    <path d="M109.032 59.434C108.605 59.861 108.092 60.073 107.492 60.073C106.892 60.073 106.378 59.8595 105.953 59.434C105.524 59.007 105.311 58.4948 105.311 57.8945C105.311 57.2942 105.518 56.7805 105.934 56.355C106.352 55.9265 106.872 55.7129 107.489 55.7129C108.089 55.7129 108.603 55.9265 109.028 56.355C109.456 56.7821 109.667 57.2942 109.667 57.8945C109.669 58.4948 109.457 59.0085 109.032 59.434Z" fill="#8082C5"/>
    <path d="M124.269 45.1904V59.7249H121.126V48.2152H116.302V59.728H113.163V48.2152H110.955V45.1904H113.163V44.898C113.164 40.9665 115.351 39 119.734 39C120.76 39 121.833 39.1269 122.961 39.376V42.2553C121.932 42.1006 120.859 42.0233 119.734 42.0233C118.57 42.0233 117.707 42.2368 117.147 42.6623C116.584 43.0893 116.305 43.8366 116.305 44.8995V45.1919H124.27V45.1904H124.269Z" fill="#8082C5"/>
    <path fill-rule="evenodd" clip-rule="evenodd" d="M85.3768 54.1625C85.5702 53.4879 85.6739 52.7746 85.6739 52.0366C85.6739 47.7911 82.2329 44.3501 77.9874 44.3501C75.0848 44.3501 72.5582 45.9592 71.2508 48.3326L73.6645 50.3703C74.3329 48.6359 76.0178 47.4043 77.9874 47.4043C79.714 47.4043 81.221 48.3496 82.0178 49.7498L80.5619 50.1196L82.7002 51.8989L85.3768 54.1625ZM84.5878 55.9789C83.2448 58.2224 80.7909 59.7247 77.9874 59.7247C73.7418 59.7247 70.3008 56.2837 70.3008 52.0382C70.3008 51.4007 70.3782 50.7818 70.5252 50.1893L72.8027 52.1124L75.0724 54.0016L73.9383 54.2894C74.7289 55.7097 76.2468 56.6705 77.9874 56.6705C79.8579 56.6705 81.4701 55.5612 82.202 53.9645L84.5878 55.9789Z" fill="#8082C5"/>
    <path fill-rule="evenodd" clip-rule="evenodd" d="M85.378 54.1625C85.5714 53.4879 85.6751 52.7746 85.6751 52.0366C85.6751 47.7911 82.2341 44.3501 77.9886 44.3501C75.086 44.3501 72.5594 45.9592 71.252 48.3326L73.6657 50.3703C74.3341 48.6359 76.019 47.4043 77.9886 47.4043C79.7153 47.4043 81.2222 48.3496 82.0191 49.7498L80.5631 50.1196L82.7014 51.8989L85.378 54.1625Z" fill="#8082C5"/>
</svg>
