<svg width="160" height="104" viewBox="0 0 160 104" fill="none" xmlns="http://www.w3.org/2000/svg">
    <rect width="160" height="104" fill="white"/>
    <g clip-path="url(#clip0_134_2759)">
        <path d="M96.917 48.8657C98.3726 48.8657 99.5527 47.6856 99.5527 46.23C99.5527 44.7743 98.3726 43.5942 96.917 43.5942C95.4613 43.5942 94.2812 44.7743 94.2812 46.23C94.2812 47.6856 95.4613 48.8657 96.917 48.8657Z" fill="#8082C5"/>
        <path d="M39.808 34.6757L43.5254 45.2477L47.2043 34.6757H50.0123L44.8034 48.4242H42.2286L37 34.6748H39.808V34.6757Z" fill="#8082C5"/>
        <path d="M51.5371 48.4234V34.6748H54.2088V48.4234H51.5371Z" fill="#8082C5"/>
        <path d="M57.4043 48.4234V34.6748H63.4857C64.1183 34.6748 64.6986 34.8042 65.2283 35.0631C65.7593 35.3131 66.2335 35.6689 66.622 36.1088C67.0223 36.5468 67.3257 37.0379 67.5323 37.5797C67.7517 38.1222 67.8614 38.6768 67.8614 39.2451C67.8682 40.0996 67.6334 40.9387 67.1843 41.6657C66.7429 42.4002 66.1429 42.9308 65.3826 43.2531L68.5197 48.4234H65.5763L62.7486 43.8145H60.0769V48.4234H57.4043ZM60.0769 41.4719H63.4266C63.9297 41.4719 64.3437 41.2594 64.666 40.8334C65.0012 40.3937 65.1692 39.8648 65.1692 39.2451C65.1692 38.8191 65.0792 38.4385 64.8983 38.1025C64.7336 37.7853 64.4941 37.5128 64.2006 37.3088C63.9424 37.1194 63.6303 37.0175 63.31 37.0182H60.0769V41.4719Z" fill="#8082C5"/>
        <path d="M39.8153 69.0459V55.2974H49.0519L48.3319 57.6408H42.4862V61.1842H47.1122L46.3442 63.3528H42.487V69.0459H39.8145H39.8153Z" fill="#8082C5"/>
        <path d="M51.6074 69.0459V55.2974H54.2791V69.0459H51.6074Z" fill="#8082C5"/>
        <path d="M60.1619 60.2165V69.0459H57.4902V55.2974H59.6202L66.7259 64.3599V55.3171H69.3994V69.0459H67.1708L60.1611 60.2165H60.1619Z" fill="#8082C5"/>
        <path d="M88.8835 60.2165V69.0459H86.2109V55.2974H88.3409L95.4466 64.3599V55.3171H98.1192V69.0459H95.8924L88.8827 60.2165H88.8835Z" fill="#8082C5"/>
        <path fill-rule="evenodd" clip-rule="evenodd" d="M114.334 55.2982V69.0468H117.007V69.0434H123.571L122.842 66.6588H117.007V63.3536H120.864L121.632 61.1851H117.007V57.6399H122.851L123.571 55.2974H114.334V55.2982Z" fill="#8082C5"/>
        <path fill-rule="evenodd" clip-rule="evenodd" d="M70.538 34.6753V48.4239H73.2105V48.4196H79.7745L79.046 46.0359H73.2105V42.7299H77.0677L77.8365 40.5613H73.2105V37.0179H79.0554L79.7754 34.6753H70.5371H70.538Z" fill="#8082C5"/>
        <path d="M99.9688 62.147C99.9688 61.2967 100.119 60.4601 100.42 59.6364C100.732 58.8155 101.19 58.0581 101.773 57.401C102.373 56.7259 103.108 56.1848 103.93 55.8127C104.78 55.4072 105.748 55.2041 106.833 55.2041C108.101 55.2041 109.205 55.4852 110.147 56.0475C111.088 56.6098 111.788 57.3418 112.246 58.2444L110.167 59.6758C109.931 59.153 109.624 58.7415 109.245 58.4407C108.879 58.1466 108.459 57.9265 108.01 57.7927C107.603 57.666 107.18 57.6001 106.754 57.5972C106.074 57.5972 105.479 57.7344 104.969 58.0087C104.472 58.283 104.054 58.643 103.714 59.0878C103.373 59.5353 103.114 60.04 102.949 60.5784C102.794 61.1136 102.715 61.6678 102.714 62.225C102.714 63.0495 102.884 63.8201 103.224 64.5392C103.548 65.2263 104.04 65.8201 104.656 66.2655C105.27 66.7095 105.982 66.9324 106.793 66.9324C107.212 66.9324 107.644 66.8604 108.088 66.7164C108.547 66.572 108.974 66.339 109.343 66.0307C109.733 65.7032 110.036 65.2853 110.226 64.8135L112.442 66.089C112.152 66.7853 111.685 67.3939 111.088 67.8547C110.46 68.332 109.758 68.7026 109.01 68.9518C108.238 69.2004 107.473 69.3247 106.715 69.3247C105.721 69.3247 104.812 69.1224 103.99 68.717C103.187 68.3049 102.468 67.7461 101.871 67.0695C101.273 66.383 100.796 65.6006 100.459 64.7552C100.138 63.923 99.9717 63.039 99.9688 62.147Z" fill="#8082C5"/>
        <path d="M76.4582 55.2983H79.1693L84.223 69.0469H81.4733L80.1962 65.6183H75.3936L74.1345 69.0469H71.3848L76.459 55.2983H76.4582ZM79.711 63.7412L77.8133 58.0669L75.8385 63.7412H79.711Z" fill="#8082C5"/>
        <path d="M90.3285 38.3233C90.3285 38.3233 89.9667 38.0764 89.593 37.8699C89.1639 37.6266 88.7091 37.4317 88.237 37.2887C87.7205 37.1081 87.1771 37.0165 86.6299 37.0179C85.171 37.0179 84.4425 37.5339 84.4425 38.5667C84.4425 38.9413 84.5582 39.2379 84.7905 39.4582C85.0227 39.6776 85.3716 39.8644 85.8362 40.0196C86.3007 40.1739 86.8819 40.3419 87.5787 40.5227C88.4822 40.755 89.2639 41.0259 89.9222 41.3362C90.5933 41.6456 91.1033 42.0587 91.4513 42.5756C91.813 43.0787 91.9939 43.7499 91.9939 44.589C91.9939 45.5704 91.7547 46.3633 91.2773 46.971C90.8127 47.565 90.193 47.997 89.4182 48.2679C88.6442 48.5396 87.805 48.675 86.9016 48.675C85.8687 48.675 84.8419 48.5199 83.8227 48.2096C82.9898 47.9483 82.1946 47.5794 81.457 47.1124L82.2807 44.6799C82.2807 44.6799 82.6347 44.8727 82.9322 45.0536C83.2287 45.2344 83.5905 45.4222 84.0165 45.615C84.4425 45.7959 84.907 45.951 85.4102 46.0804C85.9133 46.209 86.4233 46.2733 86.9402 46.2733C88.4119 46.2733 89.1473 45.8019 89.1473 44.8599C89.1473 44.4596 88.999 44.1373 88.7016 43.8913C88.405 43.647 87.9859 43.4404 87.4433 43.2724C86.8258 43.078 86.2061 42.8908 85.5842 42.711C84.7065 42.4659 83.977 42.1942 83.3967 41.8967C82.8285 41.5882 82.4025 41.2067 82.1187 40.755C81.8342 40.2904 81.6927 39.7033 81.6927 38.9927C81.6927 38.0499 81.9122 37.263 82.351 36.6304C82.8027 35.985 83.4096 35.5007 84.1707 35.1784C84.9327 34.8424 85.7779 34.6753 86.7079 34.6753C87.6627 34.6753 88.5533 34.8296 89.3796 35.1399C90.0353 35.385 90.6465 35.6884 91.1556 35.9919L90.3285 38.3233Z" fill="#8082C5"/>
    </g>
    <defs>
        <clipPath id="clip0_134_2759">
            <rect width="86.5714" height="36" fill="white" transform="translate(37 34)"/>
        </clipPath>
    </defs>
</svg>
