<svg width="160" height="104" viewBox="0 0 160 104" fill="none" xmlns="http://www.w3.org/2000/svg">
    <rect width="160" height="104" fill="white"/>
    <g clip-path="url(#clip0_134_2783)">
        <path d="M127.834 45.3267L122.864 50.1343L117.895 45.3267L122.864 40.519L127.834 45.3267Z" fill="#8082C5"/>
        <path d="M54.1043 45.4702H51.3598L51.0631 45.7572L48.1702 55.4443L44.9807 45.6137L44.684 45.4702H41.6428L41.3461 45.6137L38.2307 55.3007L35.3379 45.6137L35.0412 45.4702H32.1484L32 45.6137L36.5247 59.2473L36.8214 59.5343H39.5659L39.8626 59.2473L43.0521 49.4168L46.2417 59.2473L46.6867 59.5343H49.5796L49.8763 59.2473L54.401 45.6137L54.1043 45.4702Z" fill="#8082C5"/>
        <path d="M85.7025 45.4702H82.8097L82.513 45.7572L78.5817 55.8748L74.6504 45.7572L74.3537 45.4702H71.4609L71.3125 45.6137L76.8757 59.2473L77.1724 59.5343H79.7685L80.0652 59.2473L85.6284 45.6137V45.4702H85.7025Z" fill="#8082C5"/>
        <path d="M100.316 52.9327L100.019 53.2198H89.4865C89.6349 54.3679 90.08 55.3007 90.8217 56.0182C91.5635 56.7358 92.6019 57.1663 93.7145 57.1663C95.3464 57.1663 96.459 56.5923 97.0524 55.3007L97.3491 55.0137H99.9453L100.094 55.3007C99.6486 56.8793 98.6101 58.0992 97.4975 58.8167C96.459 59.5343 95.0497 59.8213 93.5662 59.8213C91.4151 59.8213 89.6349 59.1038 88.4481 57.7404C87.1129 56.4488 86.5195 54.5114 86.5195 52.5022C86.5195 50.493 87.1129 48.8427 88.4481 47.4075C89.7832 45.9724 91.4893 45.1831 93.4178 45.1831C95.5689 45.1831 97.2008 45.9007 98.3876 47.264C99.5744 48.5556 100.316 50.493 100.316 52.6457V52.9327ZM93.4178 47.8381C91.6376 47.8381 90.08 48.9862 89.6349 50.7801H97.2008C96.8299 49.5602 95.7915 47.8381 93.4178 47.8381Z" fill="#8082C5"/>
        <path d="M66.4916 45.6136L66.7883 45.4701H69.2361L69.5328 45.7571V59.5342L69.2361 59.8212H66.7883L66.4916 59.5342V58.0991C66.1949 58.5296 65.6015 58.9602 65.1565 59.2472C65.0081 59.2472 64.8598 59.3907 64.8598 59.3907C64.8598 59.3907 64.8598 59.3907 64.7114 59.3907C63.9697 59.8212 63.0796 59.9648 62.1153 59.9648C60.3351 59.9648 58.7774 59.2472 57.4422 57.7403C56.1071 56.2334 55.5137 54.5113 55.5137 52.5021C55.5137 50.493 56.1071 48.6991 57.4422 47.264C58.7774 45.8289 60.3351 45.0396 62.1153 45.0396C63.0054 45.0396 63.8955 45.1831 64.7114 45.6136C64.8598 45.6136 65.0081 45.7571 65.1565 45.7571C65.7499 46.0441 66.1949 46.4747 66.64 46.9052V45.6136H66.4916ZM62.412 57.1663C63.5988 57.1663 64.5631 56.7357 65.3048 55.8747C65.7499 55.3006 66.1949 54.7266 66.3433 53.7937V50.9953C66.1949 50.1342 65.7499 49.5601 65.3048 48.9143C64.5631 48.1968 63.5246 47.7662 62.412 47.7662C61.2252 47.7662 60.4834 48.1968 59.6675 49.0578C58.8516 49.9189 58.4807 51.1388 58.4807 52.4304C58.4807 53.8655 58.9257 54.9418 59.6675 55.8029C60.4093 56.664 61.151 57.1663 62.412 57.1663Z" fill="#8082C5"/>
        <path d="M110.181 51.3541C110.181 51.3541 108.697 51.0671 107.288 50.7801C106.101 50.4931 105.508 50.206 105.508 49.345C105.508 48.4839 106.398 47.7663 108.252 47.7663C110.107 47.7663 111.145 48.4839 111.145 49.2015L111.442 49.4885H114.038L114.186 49.345C114.186 47.4793 112.555 45.2549 108.327 45.2549C103.95 45.2549 102.615 47.9099 102.615 49.4885C102.615 50.7801 103.06 52.574 106.546 53.2915C106.546 53.2915 108.178 53.5786 109.439 53.8656C110.923 54.1526 111.59 54.7267 111.59 55.4442C111.59 56.1618 110.849 57.1664 108.697 57.1664C106.695 57.1664 105.656 56.3053 105.656 55.3007L105.36 55.0137H102.467L102.318 55.3007C102.615 57.6687 104.247 59.8213 108.697 59.8213C113.519 59.8213 114.409 56.8793 114.409 55.4442C114.409 53.3633 113.222 52.0717 110.181 51.3541Z" fill="#8082C5"/>
    </g>
    <defs>
        <clipPath id="clip0_134_2783">
            <rect width="96" height="22.9859" fill="white" transform="translate(32 40.5068)"/>
        </clipPath>
    </defs>
</svg>
